<?xml version="1.0" encoding="UTF-8" standalone="no"?>
<svg
   xmlns:dc="http://purl.org/dc/elements/1.1/"
   xmlns:cc="http://creativecommons.org/ns#"
   xmlns:rdf="http://www.w3.org/1999/02/22-rdf-syntax-ns#"
   xmlns:svg="http://www.w3.org/2000/svg"
   xmlns="http://www.w3.org/2000/svg"
   xmlns:sodipodi="http://sodipodi.sourceforge.net/DTD/sodipodi-0.dtd"
   xmlns:inkscape="http://www.inkscape.org/namespaces/inkscape"
   id="OpenLayers.Layer.GML_450_svgRoot"
   width="686"
   height="900"
   viewBox="0 0 686 900"
   version="1.1"
   inkscape:version="0.48.2 r9819"
   sodipodi:docname="gent.svg">
  <metadata
     id="metadata35">
    <rdf:RDF>
      <cc:Work
         rdf:about="">
        <dc:format>image/svg+xml</dc:format>
        <dc:type
           rdf:resource="http://purl.org/dc/dcmitype/StillImage" />
      </cc:Work>
    </rdf:RDF>
  </metadata>
  <defs
     id="defs33" />
  <sodipodi:namedview
     pagecolor="#ffffff"
     bordercolor="#666666"
     borderopacity="1"
     objecttolerance="10"
     gridtolerance="10"
     guidetolerance="10"
     inkscape:pageopacity="0"
     inkscape:pageshadow="2"
     inkscape:window-width="833"
     inkscape:window-height="1018"
     id="namedview31"
     showgrid="false"
     inkscape:zoom="1.4833529"
     inkscape:cx="375.29556"
     inkscape:cy="425.88543"
     inkscape:window-x="0"
     inkscape:window-y="0"
     inkscape:window-maximized="0"
     inkscape:current-layer="OpenLayers.Layer.GML_450_vroot" />
  <g
     id="OpenLayers.Layer.GML_450_root"
     transform=""
     style="visibility: visible;">
    <g
       id="OpenLayers.Layer.GML_450_vroot">
      <path
         id="OpenLayers.Geometry.Polygon_776"
         d=" M 454.0473445429261,246.1739433742623 453.28640130513486,244.95094080842682 452.82944740687526,243.40583707964106 452.7354864702411,241.82362261977687 453.4930952059485,238.92351662124565 454.2854814578686,237.35585893740063 455.31189382650973,236.54917093952827 456.6006328398862,234.58969722779875 455.1272077408621,232.45036375816562 453.84284097033105,229.876228365305 452.7469967254128,226.7990627870604 454.1817585268591,225.90882885019528 455.1224311534115,224.39661048805283 456.4212288275885,223.5302881741518 455.58954782889487,223.27604187835823 456.23582061601246,221.88029546836333 456.47259068935546,220.4084253951296 455.7747227022528,219.89077143611212 456.287266241372,218.76980421462213 457.90807091773786,219.57528987507976 459.2147229452776,217.05706974076747 463.02571432821424,211.24631851659797 464.01385278686575,211.18061180986115 465.8852187906814,208.24705813215405 467.5404400025873,210.37387145779212 469.1912072790419,211.9883520844014 470.94975856955716,212.9526067586994 473.5059900047463,214.19405908155022 473.50694140829546,220.69926894179662 508.16905787244923,212.30658103115275 515.7617466488728,217.92662515524717 515.8830194527682,222.8468542497576 519.251525870437,220.8017556616105 520.7497967800964,221.97385879834474 518.2429835140265,230.5045679591567 518.9187671564323,231.14834895002423 517.8886358652162,234.27821308276907 518.5732582952533,234.63674817918218 517.9876076436994,236.57833185211348 515.1957865699906,235.57694371169782 514.9946906945015,238.63122907547222 514.3481784088008,238.75074851266982 513.9889958531621,240.61038586009818 514.7769624254115,243.75850591972994 514.031020978453,244.2092246535467 512.0499408056057,247.67711092272657 512.2977765705273,248.76850413210923 511.96756819337315,250.0125116197014 510.2354335146192,250.67656666015682 511.33265721151747,252.80825107781857 510.64249549575015,253.13328515178 510.9882108653501,253.69968705644715 510.33320178817667,254.1608180108742 516.6550706722437,265.63127555254323 523.6233880224181,270.4231958794262 526.1216666360469,275.81070244545117 527.1377523631654,275.08463736868 532.6494639663906,282.3598114560882 530.4972206669045,284.37026236417296 532.7028174495417,288.7692490503978 534.6585297756292,287.728203899911 536.2504190179452,293.464200319635 534.9272182529867,294.0901557522593 539.1402538781576,302.3993480751815 536.5286603049353,303.113175537248 533.5556860847337,303.9258008800243 531.2482771868681,304.94703116154415 528.179372599855,304.52862378592545 526.9323848044705,303.4008472743444 523.7114967075968,302.47204742816393 521.716326918835,302.8303316461679 520.7608559740393,303.96536394872237 518.7408469454094,304.07378773346136 515.6937948042305,304.89656220184406 513.360711567705,305.9170466184005 512.4347231170732,306.14221886658925 510.2532500218904,307.2767573260353 508.59601029993155,308.63410702221154 507.98167499619376,308.4912139748485 505.62736487138227,310.64010050818615 503.77448619291044,313.0011516215018 502.95229909627415,313.75934379892715 500.5757751392621,314.62222124577966 499.2664116184242,315.47596046976105 498.15601371665616,315.7247646767064 496.8071685907862,315.87069221407 500.42552815099316,327.4658701853041 496.93972049591775,328.95431919716066 502.49069587362374,337.8685447500029 495.24787086708784,344.9468753881083 492.0698005033728,347.3670913643582 493.77017234643336,349.02972636434424 494.7919235975751,350.5155289127724 495.31318230361103,351.5327760096261 497.7273231746376,353.3155962118326 498.7552648350711,354.5507069720916 493.4828437761489,357.45512476959266 495.83474663076413,360.3772709551704 493.52886433711956,362.05446852026216 494.01357343070777,362.70557518838905 492.8705303495499,363.37333592366485 493.15381166031784,363.8822152061184 489.79599879927355,364.38106043417065 488.4876320890353,364.83924720036157 487.47003752094497,365.4986188876064 486.12546308543733,366.96014611369174 483.5102195600084,370.12442538475443 481.67869654026526,371.0376019861724 480.63508810186977,371.8330804927973 479.9589340446182,372.95750921462604 479.3146844835928,374.17357878459734 477.1104304380069,375.44283963622 477.5483400069279,376.60572667160886 478.77664431274934,377.56027173504117 480.28728835505626,379.5253914459463 474.6076793004231,381.473263711101 469.25378701988393,386.39527697622543 467.48757837123685,386.51144508873404 464.24282528351705,387.0707236487069 464.1203137543307,386.4975801200926 462.55783410604,386.6529861918534 461.7744031724451,387.5237471006112 461.285824330168,387.5004793828557 459.6456455137604,388.97736199789506 458.8152014400521,388.04448790254537 459.04560969568684,387.456890431582 458.0591340838646,387.3189011227514 456.9660780042477,388.2960290447809 455.3891237474463,388.1092214892851 455.26743668437757,387.5015515621635 454.18084663452646,387.7374325599958 454.1776754224129,389.2772370390594 453.42082336316525,389.521305326678 453.22171593952316,388.82041657011723 451.8145831074098,389.139621207607 451.8642396169025,389.90520619991 451.12360021058157,389.95563298501656 448.44834156520665,389.55956387970946 448.123526274092,388.4110314957943 446.1573633160524,388.79660668058204 446.27167596853997,389.24434533125896 442.33903982572247,390.5062583501276 441.7564750027959,389.1916733672697 439.8078211346601,389.79453709500376 440.05448276916377,390.4165001576039 438.3141510736723,390.87600842335087 437.5995695077072,389.8436705109052 436.6032096102563,389.6482916711102 435.70392355225067,390.1399267876259 435.21585120363034,391.0404297304631 427.6455145523305,392.19214741743053 426.8948080217715,390.29191717451613 422.8664677398019,389.863722466529 422.2547639860413,389.278631887908 419.9550406007247,389.3487428317894 413.54514952503087,390.98532951010566 410.4186000398622,396.62502996875264 408.1330787651541,401.8282466334349 403.57107474975055,399.46065527368046 402.313914346435,400.1832031977683 398.56469712998205,401.9073442819936 399.4186447567545,403.78677715438243 397.80890788612396,404.51227549927717 398.81986630218853,407.44482590147527 400.3861336787122,407.1057432384405 401.0314616783144,407.2352566761547 402.3424252693385,409.9809060563857 404.24102354299885,409.0684249045589 404.8272901498176,409.1290601228975 403.9770487517717,413.93101052312704 403.38769920511004,418.54982397236745 403.0967214098846,424.0906587794889 403.50175940155077,430.5852583384549 403.75785074749456,432.67630392085994 403.9780116534139,437.64912435613223 403.6803590501595,441.95938856250723 402.77805772932516,445.90162465821777 401.4241117430629,449.7302428530529 399.36890595730074,453.9064613536757 396.7052865034302,457.8851010100916 394.0052006403721,461.9655522645917 391.8605951624122,463.7472056959232 390.14815849238494,465.5164577738469 389.2432555944815,467.2372487239045 388.93097975422825,468.8810896991781 389.1457562708092,469.3455032471975 389.4246108905136,470.3677268208703 388.09623618016576,471.95787788179587 387.2006783836632,473.79538197471993 386.98622871874704,475.69646876846673 387.66053908108734,478.17211900211987 388.70105743493514,481.13424297291203 390.0308947135245,483.2527075294638 390.5979998472567,484.9553347880428 390.90713078947556,486.7141374016501 390.95143768898015,486.966367925721 388.49319961406945,489.22328127518995 388.9134769583934,492.780780486617 388.6919244531091,493.5784885487956 388.43918159082295,493.9067598312831 384.4403015951966,499.10009827045724 384.4694818684284,500.10102831877884 383.2039960501352,500.8372071495396 382.3388652812482,502.1054128934338 381.7140068197132,503.66775142883125 381.4016705007871,506.18330463187885 381.2604107329207,508.83404154017626 380.5524865878606,508.1224164373998 380.64685669948267,505.24423462453706 379.5582784251619,498.47288262532675 379.81780686809816,496.5490089789382 382.86768000526445,485.9960185338423 383.54708802679943,484.09182238976064 383.6362493223678,482.1460335585725 383.1674807613663,479.87417613780417 382.2146303156196,478.1855135181395 380.2294069881109,476.51502390352834 377.95158564173926,475.2106768474623 375.45102730212056,474.54472084876033 372.9681019249592,474.2950549835223 371.59519943093164,474.3207991463132 372.0407840177504,470.1943940056226 371.0020768323011,460.1746762363764 367.9010529778916,460.42464693947113 367.5455385372534,457.7180471228785 366.66422149035407,450.07819134087185 365.2586734988954,442.67679020592186 369.1715159331643,442.9590148565767 368.8593207135218,440.38317056810774 362.54484474114724,437.77724820423464 365.12263980233365,431.2822060509061 369.4721326860599,416.70299181403243 370.61196380809906,413.48800701467553 372.9824046228114,408.2531868228398 376.7286238687102,400.3781143532251 379.2374646981689,396.2447544183233 384.41452423827195,389.41778985939163 390.2193397994424,382.0357080168469 385.68984776790694,376.58014813272166 393.7805372699049,369.07745550626714 397.3373855695845,365.4429667148943 401.24859680359714,360.31066531500255 401.43626798161677,359.59637367083633 418.41010047065356,337.4440566133708 420.675764186738,334.56562608074455 429.9538819759482,311.31140252712066 430.8392772990055,309.9971976558445 435.26578908512965,299.22527220139455 434.4302786025246,300.32754998751625 433.79756182528126,301.8814426895842 431.9614409635242,302.2287087568402 431.1046269239023,302.874332741907 429.54282934072035,303.4238838279416 428.8688105704323,304.192936911626 425.0581800160171,304.6269416100113 422.500169088702,304.2638281514228 418.88923527911265,305.40203058638144 417.7036559621338,306.09638961237215 415.3705543613414,306.69903110488667 414.56328458234293,306.5813906863186 413.94571363829346,306.097673762255 413.3459222115889,305.10157456895104 411.78979001977314,306.23203502186516 411.4105396511295,306.94137756730197 409.86745669686934,308.2308532786119 409.0243995040764,307.9316137932765 404.19053161183365,310.57329208409647 402.2587168295322,310.3867883944331 405.53520919172206,308.71611528628273 404.37580836003053,306.18898458970943 405.58618712569114,305.73327528902155 405.21646114995565,305.0424692478409 404.5770133143278,304.6731020008592 404.436538385713,304.21907822357025 405.92944255886687,303.61267446812417 405.9897086550791,302.79244584309345 407.0596678333659,301.88303114354494 406.40432543109364,301.0240117025096 408.38535120622146,299.195055146236 406.2501081426062,297.94058925229183 407.0752457800354,296.3389138487837 407.6355253048732,296.7660412690748 408.7641183315882,296.03806751657976 407.3595809401204,295.19754671596456 407.503939555957,294.8546156903467 406.55555834348434,294.2376304023637 409.79051301979234,291.7134565907618 408.72911234116054,287.55680993554415 410.1058622024475,286.6555407227279 410.8336864301564,285.56718809467566 412.51321550085777,278.2412750030344 413.915962999612,277.6587328110181 413.0270016168033,274.92310324995196 413.26665370603587,272.6321946699027 415.93020887287094,273.27874866889033 416.20955118134134,267.96979198552435 415.3527368702544,265.02847128291614 416.2145377543229,264.8720548317506 416.02182051553064,263.7124153074983 415.03481753914457,263.83560744897113 414.5782120813028,262.3711681813438 416.0580738147846,260.3184459543263 418.777603533571,259.64360328231123 423.8108459464438,257.3755419484223 427.5697923770849,254.8690114483179 437.73602618970926,254.89962542106514 443.7010588456178,252.6126019070216 444.96556484285156,250.53928699299286 448.5948728216317,248.67246648692526 451.4386919423596,247.8721294135903 454.0473445429261,246.1739433742623 z"
         pointer-events="visiblePainted"
         cursor="inherit"
         stroke-dasharray="none"
         stroke-opacity="1"
         stroke-linejoin="round"
         stroke-linecap="round"
         stroke-width="1"
         stroke="#ee9900"
         fill-rule="evenodd"
         fill-opacity="0.4"
         fill="#ee9900" />
      <path
         id="OpenLayers.Geometry.Polygon_927"
         d=" M 443.743410609457,461.71620385412825 441.86161124803857,463.6354398725525 440.536935136739,465.5756569277437 436.7883527403601,470.65602551717893 433.61593428724154,474.3445106960862 427.92394244887873,479.05358007829636 420.49148142773356,474.4478410122829 420.02634909103836,474.76805134558526 412.9220194928057,469.9226482735976 408.28985595745144,467.42898354186036 405.855617110421,466.5927545341983 403.0138580798566,466.3730121190456 403.06898848504534,465.7917222232354 401.0912886174747,465.6720005751413 400.27201314423746,465.35549169394653 397.78402147958786,465.5907173405576 394.6499191139237,466.420364392965 391.5737358301503,467.6487663628359 389.1457562708092,469.3455032471975 388.93097975422825,468.8810896991781 389.2432555944815,467.2372487239045 390.14815849238494,465.5164577738469 391.8605951624122,463.7472056959232 394.0052006403721,461.9655522645917 396.7052865034302,457.8851010100916 399.36890595730074,453.9064613536757 401.4241117430629,449.7302428530529 402.77805772932516,445.90162465821777 403.6803590501595,441.95938856250723 403.9780116534139,437.64912435613223 403.75785074749456,432.67630392085994 403.50175940155077,430.5852583384549 403.0967214098846,424.0906587794889 403.38769920511004,418.54982397236745 403.9770487517717,413.93101052312704 404.8272901498176,409.1290601228975 404.24102354299885,409.0684249045589 402.3424252693385,409.9809060563857 401.0314616783144,407.2352566761547 400.3861336787122,407.1057432384405 398.81986630218853,407.44482590147527 397.80890788612396,404.51227549927717 399.4186447567545,403.78677715438243 398.56469712998205,401.9073442819936 402.313914346435,400.1832031977683 403.57107474975055,399.46065527368046 408.1330787651541,401.8282466334349 410.4186000398622,396.62502996875264 413.54514952503087,390.98532951010566 419.9550406007247,389.3487428317894 422.2547639860413,389.278631887908 422.8664677398019,389.863722466529 426.8948080217715,390.29191717451613 427.6455145523305,392.19214741743053 435.21585120363034,391.0404297304631 435.70392355225067,390.1399267876259 436.6032096102563,389.6482916711102 437.5995695077072,389.8436705109052 438.3141510736723,390.87600842335087 440.05448276916377,390.4165001576039 439.8078211346601,389.79453709500376 441.7564750027959,389.1916733672697 442.33903982572247,390.5062583501276 446.27167596853997,389.24434533125896 446.1573633160524,388.79660668058204 448.123526274092,388.4110314957943 448.44834156520665,389.55956387970946 451.12360021058157,389.95563298501656 451.8642396169025,389.90520619991 451.8145831074098,389.139621207607 453.22171593952316,388.82041657011723 453.42082336316525,389.521305326678 454.1776754224129,389.2772370390594 454.18084663452646,387.7374325599958 455.26743668437757,387.5015515621635 455.3891237474463,388.1092214892851 456.9660780042477,388.2960290447809 458.0591340838646,387.3189011227514 459.04560969568684,387.456890431582 458.8152014400521,388.04448790254537 459.6456455137604,388.97736199789506 461.285824330168,387.5004793828557 461.7744031724451,387.5237471006112 462.55783410604,386.6529861918534 464.1203137543307,386.4975801200926 464.24282528351705,387.0707236487069 467.48757837123685,386.51144508873404 469.25378701988393,386.39527697622543 468.33153646653227,388.7566618335695 466.0993863013791,388.85003245460393 464.8728697279321,389.2308862705977 461.80963072800114,391.2204097167414 460.55579741517795,391.78298810673004 454.17373084886276,393.1894980958168 451.7098577634106,392.9927292333887 451.8027966014406,393.85047434963053 452.39443254742946,395.72403800509346 449.51321585873484,401.48226835565583 447.762523579926,403.3216133927199 448.1115453892944,403.9345674721699 448.812050349924,403.6665045390255 449.56226310919465,406.50190563325305 448.4200398789835,406.7020838772878 449.05478221051,408.6679082035116 448.18221684843047,408.53240271966206 449.49748203748186,412.46489673724864 450.35216641293846,412.39435576096 451.6150834401042,414.728790316236 451.30587512268994,415.28006678856036 452.1666165872357,417.3081535863457 453.6487406973938,416.6943175717752 456.710916137793,417.05418110024766 459.14778118961567,415.7580940421758 460.097652845041,418.4119086041319 461.07388408855513,417.78287990708486 461.8757338180121,420.3114254402026 462.49343651090476,421.940104734982 461.9030807470763,422.30652656916936 462.8282775658072,424.17382410190476 463.8840306881466,423.49864158673154 465.1849575975084,425.5701868898468 461.8032474892625,428.21126451891905 459.58032313699005,430.45062612638867 461.74782910676095,433.6597207556042 463.1640157640377,436.5400935052894 464.0679985028037,439.0908807638916 467.7090311369029,445.63579151216254 466.51695676901454,446.25420859050064 466.7112060074496,446.6412029369385 468.49309210807405,450.50025576997723 470.72835813180245,453.84582475379284 472.4633706130435,457.1466333213757 474.51590153919005,460.17308294575196 476.9978141220063,462.1732311142114 477.77265525187886,463.1057037300634 478.88085927675456,465.7924855299934 480.91865013195,467.4632457765256 481.7968798225602,468.94252895323734 483.2582850474373,472.11814564830274 476.92855355759457,477.2250463615783 475.3979134770507,473.58236769789073 473.1733717303978,469.75897385712597 470.494744154601,466.1304005979182 467.1469841075832,463.2437084947451 455.0766017420747,453.3351991841773 452.21716485130855,455.27960060272017 445.31969707394546,460.3561426030501 443.743410609457,461.71620385412825 z"
         pointer-events="visiblePainted"
         cursor="inherit"
         stroke-dasharray="none"
         stroke-opacity="1"
         stroke-linejoin="round"
         stroke-linecap="round"
         stroke-width="1"
         stroke="#ee9900"
         fill-rule="evenodd"
         fill-opacity="0.4"
         fill="#ee9900" />
      <path
         id="OpenLayers.Geometry.Polygon_1018"
         d=" M 400.27201314423746,465.35549169394653 401.0912886174747,465.6720005751413 403.06898848504534,465.7917222232354 403.0138580798566,466.3730121190456 405.855617110421,466.5927545341983 408.28985595745144,467.42898354186036 412.9220194928057,469.9226482735976 420.02634909103836,474.76805134558526 420.49148142773356,474.4478410122829 427.92394244887873,479.05358007829636 433.61593428724154,474.3445106960862 436.7883527403601,470.65602551717893 440.536935136739,465.5756569277437 441.86161124803857,463.6354398725525 443.743410609457,461.71620385412825 445.31969707394546,460.3561426030501 452.21716485130855,455.27960060272017 455.0766017420747,453.3351991841773 467.1469841075832,463.2437084947451 470.494744154601,466.1304005979182 473.1733717303978,469.75897385712597 475.3979134770507,473.58236769789073 476.92855355759457,477.2250463615783 474.5115901387153,478.7002071383613 469.84548297003766,480.51063265110133 469.6539950537617,481.3086771470553 466.2834652023794,483.11647188378265 462.49324828079807,485.17595259306836 457.55464137081617,486.93064166371187 452.96715082873834,488.0812446003838 451.4924082036114,488.9960596877936 450.10823508578414,489.8652610971476 447.8611067472784,490.82782872390817 445.69184951345323,491.22052028948383 441.5918331580706,491.80037608977 441.22000613453565,493.0431496989622 440.2146494667295,495.3126499310165 438.9575925554018,496.94485620225896 438.0629177814553,498.05209943781665 436.42717767986596,498.1360616200982 434.5746079496939,497.833151841638 432.0356125947119,498.97765246492054 427.5844501804486,500.9841222985706 427.7126985481782,502.22542269375117 425.8500532530952,502.4011972797598 425.2467920669569,501.95853653711674 424.67760981231095,501.5159293850011 423.700139228491,501.32495600559923 422.49256815243825,500.13208439007576 421.6736664301261,499.78133790362335 420.29918056030783,499.8533404333575 419.8891798508521,499.4898508795595 418.5739970306495,500.4733824060968 417.276454713362,499.54265116616443 415.00291931108586,503.1713328244223 412.01310370655574,506.4943411443819 407.77881354576584,511.5976622077724 410.4391939138741,516.4078909112432 411.109242283992,516.4059782531549 411.15881982678366,517.829640557422 403.0789470714426,524.4467583606456 401.55638374301634,524.2917749858607 402.3688024243065,522.4103700326232 402.3670524223371,521.7839641690953 393.5904450593807,507.70966952777235 387.47305234927717,510.0778605196683 386.1771275222645,507.925820117016 384.4694818684284,500.10102831877884 384.4403015951966,499.10009827045724 388.43918159082295,493.9067598312831 388.6919244531091,493.5784885487956 388.9134769583934,492.780780486617 388.49319961406945,489.22328127518995 390.95143768898015,486.966367925721 390.90713078947556,486.7141374016501 390.5979998472567,484.9553347880428 390.0308947135245,483.2527075294638 388.70105743493514,481.13424297291203 387.66053908108734,478.17211900211987 386.98622871874704,475.69646876846673 387.2006783836632,473.79538197471993 388.09623618016576,471.95787788179587 389.4246108905136,470.3677268208703 389.1457562708092,469.3455032471975 391.5737358301503,467.6487663628359 394.6499191139237,466.420364392965 397.78402147958786,465.5907173405576 400.27201314423746,465.35549169394653 z"
         pointer-events="visiblePainted"
         cursor="inherit"
         stroke-dasharray="none"
         stroke-opacity="1"
         stroke-linejoin="round"
         stroke-linecap="round"
         stroke-width="1"
         stroke="#ee9900"
         fill-rule="evenodd"
         fill-opacity="0.4"
         fill="#ee9900" />
      <path
         id="OpenLayers.Geometry.Polygon_1057"
         d=" M 381.2604107329207,508.83404154017626 381.4016705007871,506.18330463187885 381.7140068197132,503.66775142883125 382.3388652812482,502.1054128934338 383.2039960501352,500.8372071495396 384.4694818684284,500.10102831877884 386.1771275222645,507.925820117016 387.47305234927717,510.0778605196683 393.5904450593807,507.70966952777235 402.3670524223371,521.7839641690953 402.3688024243065,522.4103700326232 401.55638374301634,524.2917749858607 403.0789470714426,524.4467583606456 406.31634795496575,524.8160535129718 413.53155515560684,525.6393404698756 415.724180514153,525.865820959647 417.57241986456665,525.4453190272034 419.3963795228983,524.7289280915575 420.8833243441486,528.6021230638726 417.97090515459877,529.552478579295 414.75383935572245,530.8460707496997 406.43083404315985,534.5491410940012 402.20627112199145,536.2932074073615 400.0068634933632,536.7955842889205 398.4281663443662,536.6798492544767 395.6291361225194,535.6606648230372 394.2525678066213,535.1909249036253 392.6976536070806,535.2458938158816 391.40645217837664,535.7545240842155 390.7298309338112,536.3354504480958 385.31385422315634,528.3892834903381 383.5271873815964,525.7289434431295 382.19462028534326,523.1633231222659 378.3979992653676,511.6337517047359 381.168416112002,510.35857981482695 381.2604107329207,508.83404154017626 z"
         pointer-events="visiblePainted"
         cursor="inherit"
         stroke-dasharray="none"
         stroke-opacity="1"
         stroke-linejoin="round"
         stroke-linecap="round"
         stroke-width="1"
         stroke="#ee9900"
         fill-rule="evenodd"
         fill-opacity="0.4"
         fill="#ee9900" />
      <path
         id="OpenLayers.Geometry.Polygon_1145"
         d=" M 385.68984776790694,376.58014813272166 390.2193397994424,382.0357080168469 384.41452423827195,389.41778985939163 379.2374646981689,396.2447544183233 376.7286238687102,400.3781143532251 372.9824046228114,408.2531868228398 370.61196380809906,413.48800701467553 369.4721326860599,416.70299181403243 365.12263980233365,431.2822060509061 362.54484474114724,437.77724820423464 360.58738075564816,442.1814611127338 359.83521529853806,444.5404649892298 359.5970350699017,447.6331840920757 360.4838205674914,460.18096586863976 361.4442620439604,475.1777906984644 361.68304933138825,478.7587059903017 362.11468496579346,480.26548000160255 362.9365238192986,481.33329821543884 363.90377606303355,482.0017279393069 362.429951840958,486.4198118723871 361.8544486141209,486.6780423707096 358.32916428539374,486.95794696909434 355.8031552525172,487.59123336567427 346.90606584953093,489.76537823313265 346.4401963481223,487.7239482648438 346.0770652684914,485.6268902168813 346.15915674472853,483.2840066151839 346.88790189324664,480.94841017406725 347.96373284834226,479.0371561522479 349.6399227291804,477.23521100584185 351.71805746638984,476.0404803240526 354.1865592098102,475.48696976565407 356.6278489383594,475.3315754931682 355.51039935611425,474.7846045519109 353.7057018360847,474.83321943771443 351.4774368579501,474.17162577502313 349.78666724010236,473.117947732826 348.3496106080747,471.69156616795226 347.2444420668553,469.99530146311736 346.400396975504,468.29086319090857 345.84394662595696,466.22541238689155 343.9337268299778,466.5687942398072 343.1758800362195,466.33292265364435 339.4690352198086,467.0096948185237 337.28227562004577,467.7486143563001 336.10526579425186,468.50952201081964 332.6172240116348,468.89318426017417 331.58772861314173,466.8095713646617 329.24921584083586,462.28009351434594 328.07597893696857,461.6075097946159 326.32023344090703,460.2345909531432 324.243793894143,462.32925895530207 320.3608612029893,464.6430767998536 319.7266112279931,465.59235514754255 319.4718603801339,466.0787985289935 316.2339561972167,461.02666022989433 311.6581299831505,452.5920105937257 312.2732814987612,452.3477211659192 311.6165518321959,451.1228448537877 303.28533528701246,436.78626215712575 299.20414586305924,429.2169289349549 306.6595898182577,425.7392811350437 313.14237592893824,421.6644098384422 319.8694537125439,416.57781635368883 327.66002044108063,410.29061353893485 334.28744975283735,405.0218895172584 337.4434821084278,403.19494149144157 340.7800186196873,401.7270914672117 344.1407851146587,400.91848638145893 347.05289925912075,400.8169463468075 351.49243761943944,401.48136914095085 358.2410562888863,392.5370284128876 361.3979698242074,391.23348785993585 362.5494567906735,390.1444581058604 363.64335711072545,389.55506810054067 364.5817071836145,389.7714536753483 365.1053538837168,389.25965125727816 366.46479135230766,389.4518978337437 368.60313826448055,387.4975327507709 369.3946217411167,387.6761280953069 370.00654223773563,387.2805509269674 370.559568558695,387.92352977780683 374.99730814866416,384.6928888818511 375.9067795456049,384.41372464322194 385.68984776790694,376.58014813272166 z"
         pointer-events="visiblePainted"
         cursor="inherit"
         stroke-dasharray="none"
         stroke-opacity="1"
         stroke-linejoin="round"
         stroke-linecap="round"
         stroke-width="1"
         stroke="#ee9900"
         fill-rule="evenodd"
         fill-opacity="0.4"
         fill="#ee9900" />
      <path
         id="OpenLayers.Geometry.Polygon_1186"
         d=" M 331.58772861314173,466.8095713646617 332.6172240116348,468.89318426017417 336.10526579425186,468.50952201081964 337.28227562004577,467.7486143563001 339.4690352198086,467.0096948185237 343.1758800362195,466.33292265364435 343.9337268299778,466.5687942398072 345.84394662595696,466.22541238689155 346.400396975504,468.29086319090857 347.2444420668553,469.99530146311736 348.3496106080747,471.69156616795226 349.78666724010236,473.117947732826 351.4774368579501,474.17162577502313 353.7057018360847,474.83321943771443 355.51039935611425,474.7846045519109 356.6278489383594,475.3315754931682 354.1865592098102,475.48696976565407 351.71805746638984,476.0404803240526 349.6399227291804,477.23521100584185 347.96373284834226,479.0371561522479 346.88790189324664,480.94841017406725 346.15915674472853,483.2840066151839 346.0770652684914,485.6268902168813 346.4401963481223,487.7239482648438 346.90606584953093,489.76537823313265 339.72853910370486,491.45103880384704 335.2585158306074,492.56586020163377 325.51727495837713,494.98257196917257 323.9454262464769,495.36517177926726 321.41022723780134,491.6770037136739 318.74569403385885,487.88642414573405 312.0103817340205,482.3101541096112 311.7245231830793,481.97127293270023 315.6420278732994,478.45170608685294 320.71107396184925,474.4549139272276 324.657067425891,471.5159877787373 327.3659956511556,469.417456143914 331.58772861314173,466.8095713646617 z"
         pointer-events="visiblePainted"
         cursor="inherit"
         stroke-dasharray="none"
         stroke-opacity="1"
         stroke-linejoin="round"
         stroke-linecap="round"
         stroke-width="1"
         stroke="#ee9900"
         fill-rule="evenodd"
         fill-opacity="0.4"
         fill="#ee9900" />
      <path
         id="OpenLayers.Geometry.Polygon_1258"
         d=" M 319.6012713361024,520.322983976308 318.40578923316843,521.4961949360877 318.3041314554439,523.0015052771778 319.5786982278978,525.7510553140164 318.49185475924696,527.7913891303324 317.225649221843,527.3912320050149 314.9372196793083,528.219964112126 313.9638325187598,528.0277169691835 312.9172523188354,527.2435966919293 312.0622544056787,525.5059290300123 311.2388227220654,522.9043103499571 311.3007450331106,521.2870851621701 310.19956048337826,521.414935767054 309.0155130505227,521.8344758136227 308.16630178972446,521.6892956365336 306.5990220135609,520.7970346323855 305.5114342825891,520.6719571402791 303.5336834278187,521.0718343554327 302.4836982440029,521.6864420601341 301.61275244096123,522.5532304622757 301.4864398601567,521.607759926148 301.87216392762457,520.508526456455 301.6790418638311,518.3459161465289 301.28245535967926,517.2157784272422 282.1869071815654,521.0667850068567 281.95273443721817,520.6664411225938 282.8177356640472,519.2648626020382 283.0063960529469,518.5618008659221 282.59390884245477,517.8523355449142 282.30162936070064,516.4960827320465 282.4714234605435,515.4059128263762 284.03140538967455,513.7273158243624 285.55806796877914,511.9686422437662 285.774562182045,510.7653891506052 286.3158127864381,509.96329843507556 287.3115273027024,510.21239851955033 289.558952726803,511.19120561332966 290.5272180468137,510.7916458307154 291.9594663669759,509.40751703616115 293.6329363587138,508.8331635795621 294.8132237380132,508.78868987648457 298.02721623596153,510.6306099364883 299.40580675096317,511.1340385452495 301.6870828886322,511.02122806456464 303.07484466376536,510.6491614020779 302.35232359212205,509.2313087886141 300.9066681053919,507.52133321453584 299.19845176688887,505.9794359670195 298.54363720604215,504.57361397171917 298.3546841448542,503.10423719137907 298.7736965228114,502.0734973734943 301.49922890300877,499.6222423477884 300.42394636209065,497.19947076459357 301.39948852779526,495.0253029095911 302.49609739610787,493.21682776704256 304.95615649419506,490.13674370144145 308.1383734419296,486.3592646912148 312.0103817340205,482.3101541096112 318.74569403385885,487.88642414573405 321.41022723780134,491.6770037136739 323.9454262464769,495.36517177926726 330.17577946963684,504.8383371046948 330.9396247683135,506.36021056484606 333.598244097524,511.96225623672944 334.26393474092947,513.2418235094519 322.2624026933754,521.1844169099204 321.4523190186137,521.3290506280318 320.48404587346795,521.278242844317 319.6012713361024,520.322983976308 z"
         pointer-events="visiblePainted"
         cursor="inherit"
         stroke-dasharray="none"
         stroke-opacity="1"
         stroke-linejoin="round"
         stroke-linecap="round"
         stroke-width="1"
         stroke="#ee9900"
         fill-rule="evenodd"
         fill-opacity="0.4"
         fill="#ee9900" />
      <path
         id="OpenLayers.Geometry.Polygon_1293"
         d=" M 361.8544486141209,486.6780423707096 362.0273731387779,489.51340934271866 361.4330816802112,489.37825576031173 356.5663821115313,491.39502163787256 353.934422407061,492.41301719394687 350.55555263320366,494.3099398658378 349.758771406523,495.59806680021575 349.3349836638208,495.46963239318575 348.219570240929,499.4490604371531 345.638616763129,498.92037860435084 345.33838328141246,502.55730529141147 343.74154549113973,505.451765994585 342.08429282296856,504.8226268432336 340.1284545461458,506.61564902370446 337.74685119412334,508.9273229047394 337.2175020449604,512.3511823170993 336.8417557672792,512.9152550469589 336.4290789175475,513.5053667470202 335.72482454715464,512.9818107401225 334.46358357468307,513.8870192662143 334.26393474092947,513.2418235094519 333.598244097524,511.96225623672944 330.9396247683135,506.36021056484606 330.17577946963684,504.8383371046948 323.9454262464769,495.36517177926726 325.51727495837713,494.98257196917257 335.2585158306074,492.56586020163377 339.72853910370486,491.45103880384704 346.90606584953093,489.76537823313265 355.8031552525172,487.59123336567427 358.32916428539374,486.95794696909434 361.8544486141209,486.6780423707096 z"
         pointer-events="visiblePainted"
         cursor="inherit"
         stroke-dasharray="none"
         stroke-opacity="1"
         stroke-linejoin="round"
         stroke-linecap="round"
         stroke-width="1"
         stroke="#ee9900"
         fill-rule="evenodd"
         fill-opacity="0.4"
         fill="#ee9900" />
      <path
         id="OpenLayers.Geometry.Polygon_1377"
         d=" M 320.3608612029893,464.6430767998536 324.243793894143,462.32925895530207 326.32023344090703,460.2345909531432 328.07597893696857,461.6075097946159 329.24921584083586,462.28009351434594 331.58772861314173,466.8095713646617 327.3659956511556,469.417456143914 324.657067425891,471.5159877787373 320.71107396184925,474.4549139272276 315.6420278732994,478.45170608685294 311.7245231830793,481.97127293270023 312.0103817340205,482.3101541096112 308.1383734419296,486.3592646912148 304.95615649419506,490.13674370144145 302.49609739610787,493.21682776704256 301.39948852779526,495.0253029095911 300.42394636209065,497.19947076459357 301.49922890300877,499.6222423477884 298.7736965228114,502.0734973734943 298.3546841448542,503.10423719137907 298.54363720604215,504.57361397171917 299.19845176688887,505.9794359670195 300.9066681053919,507.52133321453584 302.35232359212205,509.2313087886141 303.07484466376536,510.6491614020779 301.6870828886322,511.02122806456464 299.40580675096317,511.1340385452495 298.02721623596153,510.6306099364883 294.8132237380132,508.78868987648457 293.6329363587138,508.8331635795621 291.9594663669759,509.40751703616115 290.5272180468137,510.7916458307154 289.558952726803,511.19120561332966 287.3115273027024,510.21239851955033 286.3158127864381,509.96329843507556 285.774562182045,510.7653891506052 285.55806796877914,511.9686422437662 284.03140538967455,513.7273158243624 282.4714234605435,515.4059128263762 282.30162936070064,516.4960827320465 282.59390884245477,517.8523355449142 283.0063960529469,518.5618008659221 282.8177356640472,519.2648626020382 281.95273443721817,520.6664411225938 281.1371341636368,519.4524706857628 277.3025100199693,516.1718174150883 273.40833120871594,512.0377971261478 270.20214336635854,508.2630333575362 267.02518691408113,503.8288781887095 264.6101891192375,500.30097973950615 262.7679525821259,497.34756246775214 262.11650535169247,495.5665203055978 261.29853776982964,491.1332077872794 260.56609680259135,486.1090530512156 260.1505364541799,478.8803147813742 260.2081116053805,469.72211707627866 260.5951710723557,460.5319870164676 262.15906486562926,463.0169292387727 262.51348036100626,462.75859622863936 266.0540492613145,459.39226330441306 267.4520035851074,456.9368846005964 271.00872362025075,454.26460463866533 272.376920483538,452.526159884801 273.69367802927263,451.3902754886658 265.7099094546684,445.1856202302879 258.4825256469421,439.76561060316453 260.50658235386254,439.09257437499764 262.4712856930173,438.988748609132 265.56345501664055,440.4155528382689 267.7005213601906,439.85718575670035 268.64072620377465,440.29439139062015 272.3372554639973,438.90159423448495 299.20414586305924,429.2169289349549 303.28533528701246,436.78626215712575 311.6165518321959,451.1228448537877 312.2732814987612,452.3477211659192 311.6581299831505,452.5920105937257 316.2339561972167,461.02666022989433 319.4718603801339,466.0787985289935 319.7266112279931,465.59235514754255 320.3608612029893,464.6430767998536 z"
         pointer-events="visiblePainted"
         cursor="inherit"
         stroke-dasharray="none"
         stroke-opacity="1"
         stroke-linejoin="round"
         stroke-linecap="round"
         stroke-width="1"
         stroke="#ee9900"
         fill-rule="evenodd"
         fill-opacity="0.4"
         fill="#ee9900" />
      <path
         id="OpenLayers.Geometry.Polygon_1408"
         d=" M 340.1284545461458,506.61564902370446 342.08429282296856,504.8226268432336 343.74154549113973,505.451765994585 349.1236851177464,507.102689985928 350.9202309015818,509.8520104508061 351.19154995373447,513.0738221521169 352.40703462890997,515.009310610345 351.75648086099864,517.4586617786699 352.0007947077338,520.0429925770586 352.2252067290783,523.4006128130131 351.2774540454875,527.1204603205551 351.03791917352737,529.335244865797 350.9392962357915,531.0164196851983 351.9493989155517,535.7770033987326 348.47736957425695,536.2658649157966 344.06087087246306,535.3458377183706 343.37189743431554,535.0454121992225 337.43266044425945,527.985366872992 337.3477017177511,527.2764297082904 337.2999615661183,527.0523273002473 334.8412823264898,515.5245044920302 334.46358357468307,513.8870192662143 335.72482454715464,512.9818107401225 336.4290789175475,513.5053667470202 336.8417557672792,512.9152550469589 337.2175020449604,512.3511823170993 337.74685119412334,508.9273229047394 340.1284545461458,506.61564902370446 z"
         pointer-events="visiblePainted"
         cursor="inherit"
         stroke-dasharray="none"
         stroke-opacity="1"
         stroke-linejoin="round"
         stroke-linecap="round"
         stroke-width="1"
         stroke="#ee9900"
         fill-rule="evenodd"
         fill-opacity="0.4"
         fill="#ee9900" />
      <path
         id="OpenLayers.Geometry.Polygon_1435"
         d=" M 369.28469432818565,512.1008120471815 371.0350325265099,512.0112780326599 371.3362662784066,512.7572149285406 377.3381748146803,512.0472901875182 378.3979992653676,511.6337517047359 382.19462028534326,523.1633231222659 383.5271873815964,525.7289434431295 385.31385422315634,528.3892834903381 390.7298309338112,536.3354504480958 387.50259353567617,538.7556264227896 384.82151297192013,541.4337966595194 381.78871065120893,544.5606718966155 381.15225103902685,545.8518215034419 379.75055177097784,545.6262075871346 378.73131708470373,544.8332137310063 376.93273970265636,540.6579822153726 376.72611059962674,538.8081148409256 377.0475830393025,534.0998744181998 376.69205396191046,532.640646993721 373.52997971876175,526.3800854998699 372.2277523888815,520.4655190047779 371.67916750969016,517.6917584243929 370.53771010098444,514.192407064882 369.28469432818565,512.1008120471815 z"
         pointer-events="visiblePainted"
         cursor="inherit"
         stroke-dasharray="none"
         stroke-opacity="1"
         stroke-linejoin="round"
         stroke-linecap="round"
         stroke-width="1"
         stroke="#ee9900"
         fill-rule="evenodd"
         fill-opacity="0.4"
         fill="#ee9900" />
      <path
         id="OpenLayers.Geometry.Polygon_1503"
         d=" M 422.687449501791,528.4095271122496 426.38821460826875,528.3087267452793 430.05680655095966,528.5268694645347 433.9766183240681,529.0171112798998 437.1825210263505,529.7845417076169 440.7420445676589,530.8118473142822 443.81386835934427,531.9784666507039 446.8405557060614,533.1913931955496 449.3796954272011,534.5204675198329 451.6707573621052,536.192509509041 453.54426141568274,538.3223647883715 455.3852790326964,540.7709871580737 456.70533984238136,543.461460412349 457.61904322265855,546.586761666229 457.96396093121166,549.4873614817043 457.8422746508804,552.1966378047509 457.27934138498676,555.1363423914008 455.86552288531675,558.171394465593 453.62488697582467,561.5293380068906 452.5694494982781,563.6291937656642 452.03573604025223,565.6693154374079 451.7257746952637,569.1759369369829 451.45147358958,572.989535649438 448.0924700745809,573.0649720489164 447.9436907243471,574.886599994803 445.9377999448752,575.4211501130485 441.0850320744066,576.2332316290849 439.74698663592153,574.4084320004913 437.12663711476307,575.2794540052128 435.5330612226262,575.8089671968628 434.3580350171205,576.613897062547 427.2917789322855,581.4541664694843 428.9660471760153,582.5143042081327 425.9933449662576,584.6134966967511 424.59843784360874,582.7553335026605 421.9037239321988,579.8695104508079 410.73077309563905,571.0359182865359 409.3099091637732,570.6800238226133 407.4444680147062,569.9511439176713 405.8942906730499,568.8225351432338 404.31830004607036,567.1815133225755 405.22823227620574,565.5944430551463 405.990933687136,564.0306905021862 406.4369012443649,562.6510414919612 406.53061193396115,561.2394729270891 413.6076858038223,558.3184481927456 413.42967466239406,555.0189930882916 413.1112918008366,552.9724242218945 412.55588498819543,551.1658971587312 408.8969873380065,552.4620525004575 408.3539361333924,550.8262304397795 405.44702708649857,550.6614755574265 405.45855049354304,548.7832519733056 408.9873303630584,546.5428998406715 409.5133155864396,547.1999926128046 412.85097960948224,545.302264422935 408.2279827652701,540.9586922903109 415.2050828743413,536.2052671478596 415.93760709416165,535.2788197780465 416.20327714949053,534.1049821494817 416.0253870882525,532.796785210623 414.75383935572245,530.8460707496997 417.97090515459877,529.552478579295 420.8833243441486,528.6021230638726 422.687449501791,528.4095271122496 z"
         pointer-events="visiblePainted"
         cursor="inherit"
         stroke-dasharray="none"
         stroke-opacity="1"
         stroke-linejoin="round"
         stroke-linecap="round"
         stroke-width="1"
         stroke="#ee9900"
         fill-rule="evenodd"
         fill-opacity="0.4"
         fill="#ee9900" />
      <path
         id="OpenLayers.Geometry.Polygon_1551"
         d=" M 404.31830004607036,567.1815133225755 405.8942906730499,568.8225351432338 407.4444680147062,569.9511439176713 409.3099091637732,570.6800238226133 410.73077309563905,571.0359182865359 421.9037239321988,579.8695104508079 424.59843784360874,582.7553335026605 425.9933449662576,584.6134966967511 422.2421619843444,585.4656234404683 420.0037233319117,584.9777111204312 419.63585708912524,586.1176740673254 419.6784488883304,587.5967496980302 420.1219736865414,589.74443540629 419.5401859360809,591.18137154945 419.8927795475738,593.2955803439836 420.50190550684783,594.6460629757057 421.6324213740154,595.902231651693 421.07229936327985,597.1685047288775 419.44695031793617,596.665935835641 419.1102930571569,597.3275019344728 420.32975709308175,598.253490576375 419.5068350860065,599.202549050271 418.9690342232625,598.409240087698 418.06210616891985,599.2754195153539 416.8362688767211,600.446608783488 415.8105442470105,599.6563241156255 413.7312891187812,601.1245641759451 411.39408745683977,601.1381578676956 406.2118865305674,593.9329656610498 401.8803566280176,588.6682151337154 398.59185099175374,592.8747367054166 397.624604844018,590.5139880632923 397.62076568913926,589.8541708812263 395.63424964065234,587.8521171742468 394.8153196460462,587.526902856509 393.35183161793157,585.6925263223675 391.33474195305826,580.8576261888084 390.02109680147896,578.4166481141729 392.15072609543677,577.5102292218216 397.89495161321247,582.5363637313421 397.95976249011346,580.0780185673648 398.2308718654858,577.9714437378425 398.76632827209323,576.409380926154 399.338175370528,575.2454324562423 404.31830004607036,567.1815133225755 z"
         pointer-events="visiblePainted"
         cursor="inherit"
         stroke-dasharray="none"
         stroke-opacity="1"
         stroke-linejoin="round"
         stroke-linecap="round"
         stroke-width="1"
         stroke="#ee9900"
         fill-rule="evenodd"
         fill-opacity="0.4"
         fill="#ee9900" />
      <path
         id="OpenLayers.Geometry.Polygon_1618"
         d=" M 360.0286102211858,571.1593786828016 360.21101846069087,570.7564184736402 362.8958307794155,571.460153994456 366.1550468149371,571.5686495219124 369.12558086766785,571.0363455794286 372.19039986138796,569.7623488594982 373.33375827728014,571.8603076319123 375.05866537036763,572.7485128517583 376.7380875277031,572.7504642253771 378.65587886699177,571.8816402783705 380.05711864962086,571.7080889878562 383.42220371776966,573.4929337193316 384.90380011366506,575.2618531849002 386.7766638313851,578.5538500519906 388.0939914616847,581.950298160591 388.76550773737927,585.5878644303448 388.9117886337308,588.3627055616234 387.5599042972153,593.9640463199175 386.62350052945203,598.4488414885855 385.95198953915406,600.8852294855024 384.4327439751123,604.1097762447607 383.9748982151268,606.0675593256019 384.15588731181015,608.9667661735293 383.8434005617346,610.3327654471941 382.0852326762342,613.3301872855518 382.9874272176685,614.9758820926945 386.034363159014,613.8840382208582 387.9500333446722,613.6152766930463 389.8352617187811,614.3020654692082 390.9170375626345,615.4693328855064 390.86537781461266,616.857104507435 386.39543094205146,622.5706350145192 384.5551850701113,621.7814967242884 381.9963794800342,619.857942705712 377.62128990012206,617.5889568238345 370.4300109603164,614.4211405432288 367.44339817771197,613.466163256031 363.6188036607491,612.8329044193815 355.25869462851006,612.5819028729602 351.7192847537681,612.3686148191337 347.4298396430095,611.8628951584833 343.21746560190513,610.7772498844861 339.3640934383002,608.745954230908 336.42899473583384,606.6428606421832 333.57018853075897,603.8117222764849 331.31261245405494,600.7368534855923 333.08177555168004,600.9590923020878 333.8221202856357,601.6838164476067 335.10367657301595,601.6330577722983 334.99288759689443,599.5408614871121 335.53653538841263,599.3679048939666 335.33256856261414,593.9660098564782 350.5284409953383,583.7053424439073 350.98865227625174,584.3872206262313 351.03262054105653,586.5131553187966 352.77922887603563,585.1820286410511 353.5543569485135,584.0128996492276 353.96677640362395,581.5450124554773 357.0024491391714,579.5999867243372 357.4719929091425,579.7699071162497 364.81976295712593,574.7774719008885 365.1937174096511,573.8804402036767 359.92498182891177,571.5375860942295 360.0286102211858,571.1593786828016 z"
         pointer-events="visiblePainted"
         cursor="inherit"
         stroke-dasharray="none"
         stroke-opacity="1"
         stroke-linejoin="round"
         stroke-linecap="round"
         stroke-width="1"
         stroke="#ee9900"
         fill-rule="evenodd"
         fill-opacity="0.4"
         fill="#ee9900" />
      <path
         id="OpenLayers.Geometry.Polygon_1736"
         d=" M 322.64108904781096,591.1886155280954 323.67924878262056,590.8374665430165 327.41329739537287,589.1693915421492 328.7472380599402,594.6169914726634 330.11944514519473,598.493677516075 331.31261245405494,600.7368534855923 333.57018853075897,603.8117222764849 336.42899473583384,606.6428606421832 339.3640934383002,608.745954230908 343.21746560190513,610.7772498844861 347.4298396430095,611.8628951584833 351.7192847537681,612.3686148191337 355.25869462851006,612.5819028729602 363.6188036607491,612.8329044193815 367.44339817771197,613.466163256031 370.4300109603164,614.4211405432288 377.62128990012206,617.5889568238345 381.9963794800342,619.857942705712 384.5551850701113,621.7814967242884 386.39543094205146,622.5706350145192 393.7422686276486,626.1050131465454 391.3425207027494,626.621846639333 389.9762629199495,627.4268693540071 389.056219772795,628.8201525638287 388.71785448826176,630.6977980904194 388.9136399622448,632.7877546809905 389.29030562195294,634.7971563410829 389.0662630614652,636.8330236755137 388.18242804278725,638.532752875326 386.86735453243364,640.1444270087377 385.4900223863424,640.938126174864 383.8934294888977,641.1765409682121 381.3071482155365,640.9221182252222 378.0729232517924,640.3764841412776 375.7340708055017,639.8473648987565 372.95947863354104,638.5941978491464 370.4918507315233,637.4749847225321 368.9021546387021,637.0998391687608 367.0782268755138,637.2380658494512 365.4602578146196,637.6700372911291 363.9455597689439,638.2717995527055 362.1740262918829,639.4098797053011 360.3477873828533,640.798099320833 358.51677672342703,643.1296790398628 357.25457631504196,645.7189302833431 356.5285616300789,648.7698942542629 356.63133785212267,652.0306840878766 357.69137085893,657.6026686630357 357.796136674805,661.1358525191899 357.34474666514416,662.9685264400323 356.3806362123114,664.4299476991582 353.85363447208147,667.607239082543 352.5310497747678,669.6167433578084 348.63818885135333,676.5985424147366 344.6407870365583,683.149449583987 341.252637539691,687.7526986827143 337.96233657107314,691.7529418687045 336.7834500671397,690.1372305819968 337.1060847601375,687.7946430841839 336.4770380264099,686.9814305430045 335.19552887665395,686.8319895356981 334.03189187164116,687.2949685944186 333.40260613686314,687.9926562780747 333.1142218758778,688.835466780467 331.40750396035855,686.3260670819582 330.3710170349568,687.1291195591184 329.68245841918815,685.9528819432308 328.55259847378056,684.8592230060603 327.1090848651911,684.2450516108365 326.3093609385505,684.8874690806115 325.5098878020108,684.0527580584458 328.52913188984166,680.1901059816155 329.22987129404373,678.4349748124223 329.3063669679632,676.5258547589619 328.76795996077453,674.223481798108 326.06717045746245,672.1984891119646 324.4273900331791,671.1314137148147 322.8130423253933,668.9280116921582 322.1965536175567,666.955744807783 321.7215369966725,665.4365024690051 313.6805989835266,655.6796909279801 311.45035917377754,655.9921947502735 307.982112848862,654.4959678798041 305.2756407319039,653.3123394192662 301.7411197225247,652.0668308672903 300.0680578467318,651.1591695967072 296.73485958129004,649.5599297169829 294.58810130979964,648.9859791724448 292.61385662286466,645.8078527330217 290.4297241941804,641.89244314596 286.34551806228865,635.6509094523062 286.0484548918139,632.4708177467983 285.55734957337245,630.5648634456593 284.62010363328227,629.2004426831263 278.71168588689943,624.1365485240676 289.0136578106785,600.1088351234648 292.2601678616538,599.294587768396 297.3497431674632,605.553843576985 300.8889562952836,603.3555377859302 301.77130613272675,604.5495647171774 303.06858542775444,602.5355432961369 303.9154690013811,601.944393872589 304.7933697951121,602.1031456604978 307.1214768636919,605.2044200069795 309.50294637992465,602.5591567442316 313.34294281067923,601.0016599773808 315.4954550791517,600.0006965839857 317.6689211176272,601.1041528578207 319.5769507949717,600.3031980917294 319.2515697724175,598.7072122343816 318.25911346209887,597.6411261862522 318.3199360312792,596.4903759806475 320.46491516963215,594.3292341003689 319.83422848413284,591.9108756047644 322.64108904781096,591.1886155280954 z"
         pointer-events="visiblePainted"
         cursor="inherit"
         stroke-dasharray="none"
         stroke-opacity="1"
         stroke-linejoin="round"
         stroke-linecap="round"
         stroke-width="1"
         stroke="#ee9900"
         fill-rule="evenodd"
         fill-opacity="0.4"
         fill="#ee9900" />
      <path
         id="OpenLayers.Geometry.Polygon_1854"
         d=" M 248.71058945461573,548.9861437791551 252.66457463057668,548.2070676579751 255.1951046489994,548.0163939030026 256.30207497193624,548.4595752964378 256.69654103938865,549.8391039134585 255.67908141165663,552.9444057543005 255.47259064236732,554.317954013226 255.99642804009818,555.232583265315 257.11333298683167,555.7895067180361 258.4400341483397,555.7917140291247 263.35112194045905,554.5334710626485 264.64847639068375,554.0578142740269 265.6798247620518,552.988068159495 265.9503651415989,552.0244748544501 266.6541689701435,552.8333538048464 267.3033653448865,553.9065856501256 268.5592204101704,554.460034462274 270.33033534858987,556.2708217944019 272.2063865596683,556.4862667818961 272.654421174625,556.9133825154422 272.7348442356597,558.8020153778634 273.25904855974295,559.8767349863774 274.4752415558896,560.8974020304013 275.72718854263076,562.0657456319168 276.1171032358625,564.2008652119403 275.26917100477476,566.3173871864128 274.73029965771275,567.7127381623868 274.7692145877845,569.021287362455 275.35236954720585,570.2661255469284 277.7119504801458,572.8772150478326 279.3514200747113,574.1885093546298 280.28323210260714,574.2565003717609 281.1160525909172,573.6771837996639 282.0155181133832,573.8934885589406 284.9827228783888,575.177106407762 286.471320709873,575.2949055844656 289.66589395692154,574.7661384042876 290.3054503895228,574.1548725419561 290.6132973095582,572.4209571766405 291.4537888572131,570.6124512100214 292.35989649439125,570.4417137585988 293.09347078695555,571.0132283607236 294.06535694880586,572.5036847295269 294.88523177095885,572.709779694982 296.13850890425874,572.1595273231796 296.3197831737234,571.2012364259863 295.0526485041755,566.9255272573937 295.22547661090266,566.1949676181539 300.09471479253443,563.3349019412999 303.4098533463257,565.8513810555451 307.97601510957884,567.6997108741343 312.8127610320771,568.6193531678 316.47715531027006,569.788586525261 319.64893053115975,571.7410719393956 322.16127636789133,574.0752380841877 324.1210166793271,576.9816209803248 325.49834622236085,580.6084016201494 326.5234972067983,584.6538785976445 327.41329739537287,589.1693915421492 323.67924878262056,590.8374665430165 322.64108904781096,591.1886155280954 319.83422848413284,591.9108756047644 320.46491516963215,594.3292341003689 318.3199360312792,596.4903759806475 318.25911346209887,597.6411261862522 319.2515697724175,598.7072122343816 319.5769507949717,600.3031980917294 317.6689211176272,601.1041528578207 315.4954550791517,600.0006965839857 313.34294281067923,601.0016599773808 309.50294637992465,602.5591567442316 307.1214768636919,605.2044200069795 304.7933697951121,602.1031456604978 303.9154690013811,601.944393872589 303.06858542775444,602.5355432961369 301.77130613272675,604.5495647171774 300.8889562952836,603.3555377859302 297.3497431674632,605.553843576985 292.2601678616538,599.294587768396 289.0136578106785,600.1088351234648 278.71168588689943,624.1365485240676 276.1440691040634,622.2825872528774 274.4185496772543,620.1105192649702 271.2659001987304,617.1687289221882 269.37255620194355,612.1002298012609 267.7028414871502,611.1777397739061 264.16339747371876,619.2924924693943 260.31417729099576,625.1287924484495 257.00266695361006,626.0253965426964 253.49981345440028,628.6674600669503 248.95908376188436,615.4234953682753 249.682313564771,613.1970700094098 249.88838164716708,610.7229698373267 249.96340148087438,609.2873381914978 250.57446840977354,607.9511962651304 253.46454482660283,605.2796634057595 256.7402310862881,601.3232322605618 255.21323992154157,599.8398277383676 254.56484567675216,600.6427801292157 252.98006819888178,600.3894774036016 250.9486667853098,596.596288099201 246.87550232129888,591.6055739698495 241.46507987079258,586.0437312005233 242.78080595531264,583.482062995623 243.12724608568897,580.7414844692539 242.75765697137194,579.6591016808234 241.77974486227504,577.8986483384651 241.67336063065522,576.0467217709374 242.22601996063258,573.3800524195831 242.32117244646906,569.6479601188767 242.45050609435657,556.635580065762 242.7234758763043,553.1028831411531 243.28438585069125,551.67280809152 244.14822748874485,550.8647271666414 248.71058945461573,548.9861437791551 z"
         pointer-events="visiblePainted"
         cursor="inherit"
         stroke-dasharray="none"
         stroke-opacity="1"
         stroke-linejoin="round"
         stroke-linecap="round"
         stroke-width="1"
         stroke="#ee9900"
         fill-rule="evenodd"
         fill-opacity="0.4"
         fill="#ee9900" />
      <path
         id="OpenLayers.Geometry.Polygon_1899"
         d=" M 308.60866167569384,552.9740663631965 310.44544961126576,553.6206156772823 332.7758981552315,561.7125010747986 334.77021694492305,562.4679552925518 334.9307916654152,562.0995940776047 344.898462371214,565.7521566158684 352.4014513078473,568.4570553524536 360.0286102211858,571.1593786828016 359.92498182891177,571.5375860942295 365.1937174096511,573.8804402036767 364.81976295712593,574.7774719008885 357.4719929091425,579.7699071162497 357.0024491391714,579.5999867243372 353.96677640362395,581.5450124554773 353.5543569485135,584.0128996492276 352.77922887603563,585.1820286410511 351.03262054105653,586.5131553187966 350.98865227625174,584.3872206262313 350.5284409953383,583.7053424439073 335.33256856261414,593.9660098564782 335.53653538841263,599.3679048939666 334.99288759689443,599.5408614871121 335.10367657301595,601.6330577722983 333.8221202856357,601.6838164476067 333.08177555168004,600.9590923020878 331.31261245405494,600.7368534855923 330.11944514519473,598.493677516075 328.7472380599402,594.6169914726634 327.41329739537287,589.1693915421492 326.5234972067983,584.6538785976445 325.49834622236085,580.6084016201494 324.1210166793271,576.9816209803248 322.16127636789133,574.0752380841877 319.64893053115975,571.7410719393956 316.47715531027006,569.788586525261 312.8127610320771,568.6193531678 307.97601510957884,567.6997108741343 303.4098533463257,565.8513810555451 300.09471479253443,563.3349019412999 304.56473014486437,560.2863975047803 307.38992964598856,556.4043071984051 308.60866167569384,552.9740663631965 z"
         pointer-events="visiblePainted"
         cursor="inherit"
         stroke-dasharray="none"
         stroke-opacity="1"
         stroke-linejoin="round"
         stroke-linecap="round"
         stroke-width="1"
         stroke="#ee9900"
         fill-rule="evenodd"
         fill-opacity="0.4"
         fill="#ee9900" />
      <path
         id="OpenLayers.Geometry.Polygon_2147"
         d=" M 262.7679525821259,497.34756246775214 264.6101891192375,500.30097973950615 267.02518691408113,503.8288781887095 270.20214336635854,508.2630333575362 273.40833120871594,512.0377971261478 277.3025100199693,516.1718174150883 281.1371341636368,519.4524706857628 281.95273443721817,520.6664411225938 282.1869071815654,521.0667850068567 285.2695836225312,524.8198308301653 288.0599368997737,529.1463063993724 289.53644788237125,532.862789101855 291.0160289889045,538.6741869249527 292.48668902373356,547.4681302780664 293.06579426266035,552.0945091679314 294.2873180693996,555.4264894654334 296.3306488313601,559.1011240967346 298.58894321437765,561.805281077628 300.09471479253443,563.3349019412999 295.22547661090266,566.1949676181539 295.0526485041755,566.9255272573937 296.3197831737234,571.2012364259863 296.13850890425874,572.1595273231796 294.88523177095885,572.709779694982 294.06535694880586,572.5036847295269 293.09347078695555,571.0132283607236 292.35989649439125,570.4417137585988 291.4537888572131,570.6124512100214 290.6132973095582,572.4209571766405 290.3054503895228,574.1548725419561 289.66589395692154,574.7661384042876 286.471320709873,575.2949055844656 284.9827228783888,575.177106407762 282.0155181133832,573.8934885589406 281.1160525909172,573.6771837996639 280.28323210260714,574.2565003717609 279.3514200747113,574.1885093546298 277.7119504801458,572.8772150478326 275.35236954720585,570.2661255469284 274.7692145877845,569.021287362455 274.73029965771275,567.7127381623868 275.26917100477476,566.3173871864128 276.1171032358625,564.2008652119403 275.72718854263076,562.0657456319168 274.4752415558896,560.8974020304013 273.25904855974295,559.8767349863774 272.7348442356597,558.8020153778634 272.654421174625,556.9133825154422 272.2063865596683,556.4862667818961 270.33033534858987,556.2708217944019 268.5592204101704,554.460034462274 267.3033653448865,553.9065856501256 266.6541689701435,552.8333538048464 265.9503651415989,552.0244748544501 265.6798247620518,552.988068159495 264.64847639068375,554.0578142740269 263.35112194045905,554.5334710626485 258.4400341483397,555.7917140291247 257.11333298683167,555.7895067180361 255.99642804009818,555.232583265315 255.47259064236732,554.317954013226 255.67908141165663,552.9444057543005 256.69654103938865,549.8391039134585 256.30207497193624,548.4595752964378 255.1951046489994,548.0163939030026 252.66457463057668,548.2070676579751 248.71058945461573,548.9861437791551 244.14822748874485,550.8647271666414 243.28438585069125,551.67280809152 242.7234758763043,553.1028831411531 242.45050609435657,556.635580065762 242.32117244646906,569.6479601188767 242.22601996063258,573.3800524195831 241.67336063065522,576.0467217709374 241.77974486227504,577.8986483384651 242.75765697137194,579.6591016808234 243.12724608568897,580.7414844692539 242.78080595531264,583.482062995623 241.46507987079258,586.0437312005233 240.92542251227405,587.5034042414918 241.12825030347176,588.7154669615556 241.19213807109372,590.2498605016008 240.4690134236571,591.6348477766587 238.7285922606634,592.7514063992276 236.16426178075744,593.6058208038303 234.39435424995372,592.7776781217981 234.68525810836945,591.7796830567822 234.87936452453323,590.1361078165937 234.15550080728462,587.2767533722508 232.7058814440561,585.2173831225227 230.3916555044798,582.2386231635319 229.16384921945973,580.8964515888365 228.4577746323066,579.6196966481075 228.05216652140643,578.0404019877897 227.11810112346302,576.8055554738094 224.77680445538317,574.7493944082235 223.128882162634,574.0609172108525 222.41076367802998,574.1854772796505 221.62684537122277,574.8561563308904 220.97006510509618,575.3922161873052 220.0630807529078,575.2633420195925 216.88953089643837,572.669172717302 216.16952986219349,571.5288257274806 216.07153991335144,570.5813146410801 215.6082491935158,569.7304782837455 214.44883990087237,569.0502261379443 211.41339874811183,567.7119030318136 207.44332951122033,566.529445596665 206.1113355982916,565.971682520787 205.6248130332342,565.1432083855179 205.74857602015254,563.8346123416559 205.1724918842856,562.9247269945627 204.34905621543112,562.5348874433112 202.65588872034823,562.5071320157585 199.83995469586534,563.0190772494389 197.6219675473094,563.8031353552506 196.03792545347005,564.7456956827373 194.5185872255688,565.7956067770574 192.1663957834653,567.4740338745323 189.39100271276038,569.8288453287387 187.7394413308648,572.1812429960264 186.4709654536291,574.3019944271946 185.45345226717018,576.5330024249561 185.0854863890345,578.0280761566828 185.3770677388584,579.6405887070578 181.60889030570434,578.6617180537578 180.942652316583,581.7763147692895 180.1648779880361,585.9958077610208 178.46748945771287,589.2249441832682 174.3763844503419,593.4271611592994 172.0782389413871,591.5765603929176 170.54898449320444,590.3449743144301 169.2108679271505,589.4850757863751 167.79113442109974,587.499797264536 166.1342827007502,587.497285519843 164.93564420836174,586.9088222616992 163.76560742838137,585.876457926177 162.72273707375643,586.9131685858156 160.4405900941474,584.950002630867 158.5696097106338,584.1423076341307 156.81017725438596,582.2520452538738 157.2897213209062,581.5522714111576 146.85974612173413,575.0468503600714 156.89205172898983,554.5860294364102 164.2378376117922,550.0341905035166 163.99235285807572,546.6568002001732 163.50152282296858,544.5683276364289 162.036366690234,541.7176451239357 164.53060902462767,538.6366209851694 166.0475934365304,539.2213615855144 169.71675420915835,534.7029363940819 169.52821472370306,533.202608486361 170.89928970503024,531.1025666070491 173.0589152712373,529.4143855707225 174.67906404062887,530.0662339723058 176.30382708490833,530.1606557213381 177.4906904521995,531.6145693246508 179.242769217798,532.8569857888651 180.86008885457068,530.4470228053833 182.03819124887377,528.6822745563986 183.55754807744506,526.723959854935 183.9345611517574,525.1460823572561 185.74968224565055,521.0160993471945 186.16037613969456,520.7746442825883 187.8042542536332,518.6600631907495 188.66579242772423,518.5470854312007 189.5119942306028,517.1364522205986 190.4726716938767,517.7055544539471 191.5221540726925,516.014596641704 187.4468280471492,513.5680539616878 188.97588888798782,511.73507002877886 190.00324257043485,510.0191726336925 192.08568465380085,511.2830692003772 194.81377405530566,504.07911385239277 193.8647056617483,502.2973867656692 193.94824829016216,499.17613826616434 193.50904608883138,496.7645085760887 192.06323562250236,496.18297728549805 190.44104813138802,495.0352743974654 189.0974339143977,493.79879410463036 188.59771461507717,493.80489609224605 185.38860116539217,491.37215096328873 183.81616531528107,492.85996013734257 183.3784262613617,492.34138124964375 182.32464327160596,492.547878374884 182.583944914124,493.33032307808753 181.56735238734473,494.75479460794304 180.46370847119942,494.1031459786609 178.41022668966707,492.89105096536514 178.58112188006635,491.98958011728246 179.5553051615707,491.76141099174856 179.67001884809542,489.02656348227174 179.97286933696796,487.758790595326 182.97175446638266,484.94393795695214 183.80742284052667,485.4805862402136 184.89024067125138,484.85255863649945 184.53051482041974,484.2188717599347 185.76070728598825,483.55514808506996 185.89111449405755,483.05248432159715 185.40288720063745,482.4572177756636 186.57685061796656,479.38701271136233 188.02397085368648,477.7343165579805 188.72995538147825,476.21813429107715 189.78744604454914,475.48260561117786 191.5990139558262,473.0835556919483 193.39777186844003,471.49333209419274 195.71567235183738,466.55998824989365 197.4364712546003,466.31390245580405 198.05121611743198,465.54838261779514 200.29059073717872,465.5728423808614 200.7295840707602,465.1353554408706 201.73255623403838,464.9802982314577 203.12148787595106,463.4408366620919 207.75647709075474,468.66784187323356 208.22968450080134,470.36257286985347 208.88134163983977,471.55866683722707 210.15944450489405,472.68496104235237 211.91708325770924,471.5502786565921 216.6381680700115,464.99173425165645 214.95655731594707,463.505635596739 218.2865259713999,460.05942760099424 220.0869007673855,455.5737850707519 224.52356182458334,452.6355473268486 227.58688459268342,450.2453600637964 229.2924881752424,449.5433629609033 231.15717903768382,449.56240321446967 235.60202119511632,451.74401247860806 235.0659399460592,453.9472381364758 235.86717083395433,462.0320376776799 238.61305674901814,461.61015851479897 239.96861513836302,461.08863222706714 244.92215449582181,461.69539551508205 245.70973810315718,461.2364534330409 246.85571829143464,460.1101294779219 249.88092861422138,458.3195806458243 251.25749598973835,457.980318437636 251.88293226873884,456.71220447124506 255.39286344263473,452.9920052375819 260.5951710723557,460.5319870164676 260.2081116053805,469.72211707627866 260.1505364541799,478.8803147813742 260.56609680259135,486.1090530512156 261.29853776982964,491.1332077872794 262.11650535169247,495.5665203055978 262.7679525821259,497.34756246775214 z"
         pointer-events="visiblePainted"
         cursor="inherit"
         stroke-dasharray="none"
         stroke-opacity="1"
         stroke-linejoin="round"
         stroke-linecap="round"
         stroke-width="1"
         stroke="#ee9900"
         fill-rule="evenodd"
         fill-opacity="0.4"
         fill="#ee9900" />
      <path
         id="OpenLayers.Geometry.Polygon_2191"
         d=" M 360.58738075564816,442.1814611127338 362.54484474114724,437.77724820423464 368.8593207135218,440.38317056810774 369.1715159331643,442.9590148565767 365.2586734988954,442.67679020592186 366.66422149035407,450.07819134087185 367.5455385372534,457.7180471228785 367.9010529778916,460.42464693947113 371.0020768323011,460.1746762363764 372.0407840177504,470.1943940056226 371.59519943093164,474.3207991463132 372.9681019249592,474.2950549835223 375.45102730212056,474.54472084876033 377.95158564173926,475.2106768474623 380.2294069881109,476.51502390352834 382.2146303156196,478.1855135181395 383.1674807613663,479.87417613780417 383.6362493223678,482.1460335585725 383.54708802679943,484.09182238976064 382.86768000526445,485.9960185338423 379.81780686809816,496.5490089789382 379.5582784251619,498.47288262532675 380.64685669948267,505.24423462453706 380.5524865878606,508.1224164373998 381.2604107329207,508.83404154017626 381.168416112002,510.35857981482695 378.3979992653676,511.6337517047359 373.443886826105,494.9370863821823 369.92089404708804,482.6898894715996 366.4503113715309,481.6597774763941 366.0220703821815,481.54594554839423 364.185400263068,481.3745990793104 363.90377606303355,482.0017279393069 362.9365238192986,481.33329821543884 362.11468496579346,480.26548000160255 361.68304933138825,478.7587059903017 361.4442620439604,475.1777906984644 360.4838205674914,460.18096586863976 359.5970350699017,447.6331840920757 359.83521529853806,444.5404649892298 360.58738075564816,442.1814611127338 z"
         pointer-events="visiblePainted"
         cursor="inherit"
         stroke-dasharray="none"
         stroke-opacity="1"
         stroke-linejoin="round"
         stroke-linecap="round"
         stroke-width="1"
         stroke="#ee9900"
         fill-rule="evenodd"
         fill-opacity="0.4"
         fill="#ee9900">
        <title
           id="title3012">Muide - Meulestede - Afrikalaan</title>
      </path>
      <path
         id="OpenLayers.Geometry.Polygon_2233"
         d=" M 364.185400263068,481.3745990793104 366.0220703821815,481.54594554839423 366.4503113715309,481.6597774763941 369.92089404708804,482.6898894715996 373.443886826105,494.9370863821823 378.3979992653676,511.6337517047359 377.3381748146803,512.0472901875182 371.3362662784066,512.7572149285406 371.0350325265099,512.0112780326599 369.28469432818565,512.1008120471815 368.5043574223846,510.78457865904784 367.5262212504176,507.91859934963577 366.83494112330027,506.8306846127525 364.9550782758115,505.4903567439469 362.8577694004507,504.32962748869613 362.174547933304,503.526097721915 361.2223869110112,503.4585007873393 359.69237579748915,505.3981921077939 359.4460306820929,506.1348962153861 357.5712967269601,505.13703191683453 353.0097587155451,507.8911102419661 352.445939361437,509.14154939641594 350.9202309015818,509.8520104508061 349.1236851177464,507.102689985928 343.74154549113973,505.451765994585 345.33838328141246,502.55730529141147 345.638616763129,498.92037860435084 348.219570240929,499.4490604371531 349.3349836638208,495.46963239318575 349.758771406523,495.59806680021575 350.55555263320366,494.3099398658378 353.934422407061,492.41301719394687 356.5663821115313,491.39502163787256 361.4330816802112,489.37825576031173 362.0273731387779,489.51340934271866 361.8544486141209,486.6780423707096 362.429951840958,486.4198118723871 363.90377606303355,482.0017279393069 364.185400263068,481.3745990793104 z"
         pointer-events="visiblePainted"
         cursor="inherit"
         stroke-dasharray="none"
         stroke-opacity="1"
         stroke-linejoin="round"
         stroke-linecap="round"
         stroke-width="1"
         stroke="#ee9900"
         fill-rule="evenodd"
         fill-opacity="0.4"
         fill="#ee9900" />
      <path
         id="OpenLayers.Geometry.Polygon_2297"
         d=" M 357.5712967269601,505.13703191683453 359.4460306820929,506.1348962153861 359.69237579748915,505.3981921077939 361.2223869110112,503.4585007873393 362.174547933304,503.526097721915 362.8577694004507,504.32962748869613 364.9550782758115,505.4903567439469 366.83494112330027,506.8306846127525 367.5262212504176,507.91859934963577 368.5043574223846,510.78457865904784 369.28469432818565,512.1008120471815 370.53771010098444,514.192407064882 371.67916750969016,517.6917584243929 372.2277523888815,520.4655190047779 373.52997971876175,526.3800854998699 376.69205396191046,532.640646993721 377.0475830393025,534.0998744181998 376.72611059962674,538.8081148409256 376.93273970265636,540.6579822153726 378.73131708470373,544.8332137310063 379.75055177097784,545.6262075871346 381.15225103902685,545.8518215034419 380.28742627418615,547.2209158922051 379.0039002232843,549.2528992321168 378.3836544105925,551.1691501070309 377.47698840777684,554.299295947465 376.6172979567482,555.2887380086031 376.8867803528565,556.4992074432812 376.16558714314397,556.2561617176689 375.40932773174063,556.4122497062926 374.52792924132973,556.5603019599803 372.1942300186638,557.1557144456456 370.6533558243973,558.572281239889 370.15485427584554,560.3601817377203 370.14581207162064,562.6474128474802 369.49963212903367,562.6757269610534 365.22351111280204,555.7321611827647 360.7316057592798,555.8491986148001 360.7179686179152,555.8577613338566 359.5534229713494,554.9177941239323 359.54848689862956,554.9119864596432 358.51048957502644,554.6213824879378 350.0950269563682,547.3989866991033 349.67754501127365,547.9332706230489 346.98841790968254,545.7731914790202 351.07345902458474,543.1287331887142 352.2898739173743,541.4581408254453 352.45374767494013,540.3387802650686 351.9493989155517,535.7770033987326 350.9392962357915,531.0164196851983 351.03791917352737,529.335244865797 351.2774540454875,527.1204603205551 352.2252067290783,523.4006128130131 352.0007947077338,520.0429925770586 351.75648086099864,517.4586617786699 352.40703462890997,515.009310610345 351.19154995373447,513.0738221521169 350.9202309015818,509.8520104508061 352.445939361437,509.14154939641594 353.0097587155451,507.8911102419661 357.5712967269601,505.13703191683453 z"
         pointer-events="visiblePainted"
         cursor="inherit"
         stroke-dasharray="none"
         stroke-opacity="1"
         stroke-linejoin="round"
         stroke-linecap="round"
         stroke-width="1"
         stroke="#ee9900"
         fill-rule="evenodd"
         fill-opacity="0.4"
         fill="#ee9900" />
      <path
         id="OpenLayers.Geometry.Polygon_2346"
         d=" M 381.78871065120893,544.5606718966155 384.82151297192013,541.4337966595194 387.50259353567617,538.7556264227896 390.7298309338112,536.3354504480958 391.40645217837664,535.7545240842155 392.6976536070806,535.2458938158816 394.2525678066213,535.1909249036253 395.6291361225194,535.6606648230372 398.4281663443662,536.6798492544767 400.0068634933632,536.7955842889205 402.20627112199145,536.2932074073615 406.43083404315985,534.5491410940012 414.75383935572245,530.8460707496997 416.0253870882525,532.796785210623 416.20327714949053,534.1049821494817 415.93760709416165,535.2788197780465 415.2050828743413,536.2052671478596 408.2279827652701,540.9586922903109 412.85097960948224,545.302264422935 409.5133155864396,547.1999926128046 408.9873303630584,546.5428998406715 405.45855049354304,548.7832519733056 405.44702708649857,550.6614755574265 408.3539361333924,550.8262304397795 408.8969873380065,552.4620525004575 412.55588498819543,551.1658971587312 413.1112918008366,552.9724242218945 413.42967466239406,555.0189930882916 413.6076858038223,558.3184481927456 406.53061193396115,561.2394729270891 406.4369012443649,562.6510414919612 405.990933687136,564.0306905021862 405.22823227620574,565.5944430551463 404.31830004607036,567.1815133225755 401.5873015076586,564.0797624975821 401.10704798864936,563.4565862127929 397.9073236635313,560.7988337452407 398.12018834885384,560.4109348476777 392.92335247201754,556.2503633656015 392.5744693493607,556.6277141895844 388.2872012194939,552.9160387566662 381.3620611265278,547.9040830806916 381.35873973301386,547.8899296942545 380.28742627418615,547.2209158922051 381.15225103902685,545.8518215034419 381.78871065120893,544.5606718966155 z"
         pointer-events="visiblePainted"
         cursor="inherit"
         stroke-dasharray="none"
         stroke-opacity="1"
         stroke-linejoin="round"
         stroke-linecap="round"
         stroke-width="1"
         stroke="#ee9900"
         fill-rule="evenodd"
         fill-opacity="0.4"
         fill="#ee9900" />
      <path
         id="OpenLayers.Geometry.Polygon_2393"
         d=" M 374.52792924132973,556.5603019599803 375.40932773174063,556.4122497062926 376.16558714314397,556.2561617176689 376.8867803528565,556.4992074432812 376.6172979567482,555.2887380086031 377.47698840777684,554.299295947465 378.3836544105925,551.1691501070309 379.0039002232843,549.2528992321168 380.28742627418615,547.2209158922051 381.35873973301386,547.8899296942545 381.3620611265278,547.9040830806916 388.2872012194939,552.9160387566662 392.5744693493607,556.6277141895844 392.92335247201754,556.2503633656015 398.12018834885384,560.4109348476777 397.9073236635313,560.7988337452407 401.10704798864936,563.4565862127929 401.5873015076586,564.0797624975821 404.31830004607036,567.1815133225755 399.338175370528,575.2454324562423 398.76632827209323,576.409380926154 398.2308718654858,577.9714437378425 397.95976249011346,580.0780185673648 397.89495161321247,582.5363637313421 392.15072609543677,577.5102292218216 390.02109680147896,578.4166481141729 391.33474195305826,580.8576261888084 388.0939914616847,581.950298160591 386.7766638313851,578.5538500519906 384.90380011366506,575.2618531849002 383.42220371776966,573.4929337193316 380.05711864962086,571.7080889878562 378.65587886699177,571.8816402783705 376.7380875277031,572.7504642253771 375.05866537036763,572.7485128517583 373.33375827728014,571.8603076319123 372.19039986138796,569.7623488594982 371.25673677762006,566.1230182681466 370.3682246898816,563.7908530933491 370.14581207162064,562.6474128474802 370.15485427584554,560.3601817377203 370.6533558243973,558.572281239889 372.1942300186638,557.1557144456456 374.52792924132973,556.5603019599803 z"
         pointer-events="visiblePainted"
         cursor="inherit"
         stroke-dasharray="none"
         stroke-opacity="1"
         stroke-linejoin="round"
         stroke-linecap="round"
         stroke-width="1"
         stroke="#ee9900"
         fill-rule="evenodd"
         fill-opacity="0.4"
         fill="#ee9900" />
      <path
         id="OpenLayers.Geometry.Polygon_2444"
         d=" M 319.40869853960794,542.1684526157915 319.41248688141695,542.1754189410422 321.89231945100346,541.587548682146 324.27891139793337,541.7638597620535 329.1931703337441,543.4581062343204 331.58675269137075,544.2263233095728 334.6073932021445,544.2472096291604 337.23682871573055,544.7964399740449 337.9964791710536,545.2237093085423 341.1125898509981,548.0779729283386 342.321027475783,548.7176385930798 343.7304863199615,548.3619698077382 346.98841790968254,545.7731914790202 349.67754501127365,547.9332706230489 350.0950269563682,547.3989866991033 358.51048957502644,554.6213824879378 359.54848689862956,554.9119864596432 359.5534229713494,554.9177941239323 360.7179686179152,555.8577613338566 360.7316057592798,555.8491986148001 365.22351111280204,555.7321611827647 369.49963212903367,562.6757269610534 370.14581207162064,562.6474128474802 370.3682246898816,563.7908530933491 371.25673677762006,566.1230182681466 372.19039986138796,569.7623488594982 369.12558086766785,571.0363455794286 366.1550468149371,571.5686495219124 362.8958307794155,571.460153994456 360.21101846069087,570.7564184736402 360.0286102211858,571.1593786828016 352.4014513078473,568.4570553524536 344.898462371214,565.7521566158684 334.9307916654152,562.0995940776047 334.77021694492305,562.4679552925518 332.7758981552315,561.7125010747986 310.44544961126576,553.6206156772823 308.60866167569384,552.9740663631965 309.53541864469116,550.7543550644041 310.5297050773088,549.4101158844715 314.28806387390796,546.5981460033654 316.53094331227567,544.2710812309379 316.5345063406421,544.2503036505368 316.5509230217758,544.2455134342308 317.56989587814314,543.2739301835536 318.3891183293035,542.755526522451 319.403154938429,542.1757511373726 319.40869853960794,542.1684526157915 z"
         pointer-events="visiblePainted"
         cursor="inherit"
         stroke-dasharray="none"
         stroke-opacity="1"
         stroke-linejoin="round"
         stroke-linecap="round"
         stroke-width="1"
         stroke="#ee9900"
         fill-rule="evenodd"
         fill-opacity="0.4"
         fill="#ee9900" />
      <path
         id="OpenLayers.Geometry.Polygon_2524"
         d=" M 334.26393474092947,513.2418235094519 334.46358357468307,513.8870192662143 334.8412823264898,515.5245044920302 337.2999615661183,527.0523273002473 337.3477017177511,527.2764297082904 337.43266044425945,527.985366872992 343.37189743431554,535.0454121992225 344.06087087246306,535.3458377183706 348.47736957425695,536.2658649157966 351.9493989155517,535.7770033987326 352.45374767494013,540.3387802650686 352.2898739173743,541.4581408254453 351.07345902458474,543.1287331887142 346.98841790968254,545.7731914790202 343.7304863199615,548.3619698077382 342.321027475783,548.7176385930798 341.1125898509981,548.0779729283386 337.9964791710536,545.2237093085423 337.23682871573055,544.7964399740449 334.6073932021445,544.2472096291604 331.58675269137075,544.2263233095728 329.1931703337441,543.4581062343204 324.27891139793337,541.7638597620535 321.89231945100346,541.587548682146 319.41248688141695,542.1754189410422 319.40869853960794,542.1684526157915 319.403154938429,542.1757511373726 318.3891183293035,542.755526522451 317.56989587814314,543.2739301835536 316.5509230217758,544.2455134342308 316.5345063406421,544.2503036505368 316.53094331227567,544.2710812309379 314.28806387390796,546.5981460033654 310.5297050773088,549.4101158844715 309.53541864469116,550.7543550644041 308.60866167569384,552.9740663631965 307.38992964598856,556.4043071984051 304.56473014486437,560.2863975047803 300.09471479253443,563.3349019412999 298.58894321437765,561.805281077628 296.3306488313601,559.1011240967346 294.2873180693996,555.4264894654334 293.06579426266035,552.0945091679314 292.48668902373356,547.4681302780664 291.0160289889045,538.6741869249527 289.53644788237125,532.862789101855 288.0599368997737,529.1463063993724 285.2695836225312,524.8198308301653 282.1869071815654,521.0667850068567 301.28245535967926,517.2157784272422 301.6790418638311,518.3459161465289 301.87216392762457,520.508526456455 301.4864398601567,521.607759926148 301.61275244096123,522.5532304622757 302.4836982440029,521.6864420601341 303.5336834278187,521.0718343554327 305.5114342825891,520.6719571402791 306.5990220135609,520.7970346323855 308.16630178972446,521.6892956365336 309.0155130505227,521.8344758136227 310.19956048337826,521.414935767054 311.3007450331106,521.2870851621701 311.2388227220654,522.9043103499571 312.0622544056787,525.5059290300123 312.9172523188354,527.2435966919293 313.9638325187598,528.0277169691835 314.9372196793083,528.219964112126 317.225649221843,527.3912320050149 318.49185475924696,527.7913891303324 319.5786982278978,525.7510553140164 318.3041314554439,523.0015052771778 318.40578923316843,521.4961949360877 319.6012713361024,520.322983976308 320.48404587346795,521.278242844317 321.4523190186137,521.3290506280318 322.2624026933754,521.1844169099204 334.26393474092947,513.2418235094519 z"
         pointer-events="visiblePainted"
         cursor="inherit"
         stroke-dasharray="none"
         stroke-opacity="1"
         stroke-linejoin="round"
         stroke-linecap="round"
         stroke-width="1"
         stroke="#ee9900"
         fill-rule="evenodd"
         fill-opacity="0.4"
         fill="#ee9900" />
    </g>
    <g
       id="OpenLayers.Layer.GML_450_troot" />
  </g>
</svg>
