<?xml version="1.0" encoding="UTF-8" standalone="no"?>
<!-- Created with Inkscape (http://www.inkscape.org/) -->
<svg
   xmlns:dc="http://purl.org/dc/elements/1.1/"
   xmlns:cc="http://web.resource.org/cc/"
   xmlns:rdf="http://www.w3.org/1999/02/22-rdf-syntax-ns#"
   xmlns:svg="http://www.w3.org/2000/svg"
   xmlns="http://www.w3.org/2000/svg"
   xmlns:sodipodi="http://inkscape.sourceforge.net/DTD/sodipodi-0.dtd"
   xmlns:inkscape="http://www.inkscape.org/namespaces/inkscape"
   width="361.28pt"
   height="366.89001pt"
   id="svg2"
   sodipodi:version="0.32"
   inkscape:version="0.43"
   version="1.0"
   sodipodi:docbase="C:\Documents and Settings\Ruben\Bureaublad"
   sodipodi:docname="Gent.svg">
  <defs
     id="defs4">
    <marker
       inkscape:stockid="Arrow1Mend"
       orient="auto"
       refY="0.0"
       refX="0.0"
       id="Arrow1Mend"
       style="overflow:visible;">
      <path
         id="path2469"
         d="M 0.0,0.0 L 5.0,-5.0 L -12.5,0.0 L 5.0,5.0 L 0.0,0.0 z "
         style="fill-rule:evenodd;stroke:#000000;stroke-width:1.0pt;marker-start:none;"
         transform="scale(0.4) rotate(180)" />
    </marker>
    <marker
       inkscape:stockid="Arrow1Lend"
       orient="auto"
       refY="0.0"
       refX="0.0"
       id="Arrow1Lend"
       style="overflow:visible;">
      <path
         id="path2475"
         d="M 0.0,0.0 L 5.0,-5.0 L -12.5,0.0 L 5.0,5.0 L 0.0,0.0 z "
         style="fill-rule:evenodd;stroke:#000000;stroke-width:1.0pt;marker-start:none;"
         transform="scale(0.8) rotate(180)" />
    </marker>
    <marker
       inkscape:stockid="Arrow1Lstart"
       orient="auto"
       refY="0.0"
       refX="0.0"
       id="Arrow1Lstart"
       style="overflow:visible">
      <path
         id="path2478"
         d="M 0.0,0.0 L 5.0,-5.0 L -12.5,0.0 L 5.0,5.0 L 0.0,0.0 z "
         style="fill-rule:evenodd;stroke:#000000;stroke-width:1.0pt;marker-start:none"
         transform="scale(0.8)" />
    </marker>
  </defs>
  <sodipodi:namedview
     id="base"
     pagecolor="#ffffff"
     bordercolor="#666666"
     borderopacity="1.0"
     inkscape:pageopacity="0.0"
     inkscape:pageshadow="2"
     inkscape:zoom="2.1674747"
     inkscape:cx="307.47045"
     inkscape:cy="194.5672"
     inkscape:document-units="px"
     inkscape:current-layer="layer7"
     inkscape:window-width="1010"
     inkscape:window-height="703"
     inkscape:window-x="6"
     inkscape:window-y="0"
     showguides="true"
     inkscape:guide-bbox="true" />
  <metadata
     id="metadata7">
    <rdf:RDF>
      <cc:Work
         rdf:about="">
        <dc:format>image/svg+xml</dc:format>
        <dc:type
           rdf:resource="http://purl.org/dc/dcmitype/StillImage" />
      </cc:Work>
    </rdf:RDF>
  </metadata>
  <g
     inkscape:label="Achtergrond"
     inkscape:groupmode="layer"
     id="layer1"
     style="display:inline"
     sodipodi:insensitive="true">
    <rect
       style="opacity:1;fill:#dedede;fill-opacity:1;fill-rule:nonzero;stroke:none;stroke-width:1;stroke-linecap:round;stroke-linejoin:miter;stroke-miterlimit:4;stroke-dasharray:none;stroke-dashoffset:0;stroke-opacity:1;display:inline"
       id="rect7064"
       width="444.87323"
       height="452.31888"
       x="2.2750001"
       y="6.4106402" />
  </g>
  <g
     inkscape:groupmode="layer"
     id="layer6"
     inkscape:label="Kleur"
     sodipodi:insensitive="true">
    <path
       style="fill:#ccc7b2;fill-opacity:1;fill-rule:evenodd;stroke:none;stroke-width:1.60000026;stroke-linecap:butt;stroke-linejoin:round;stroke-miterlimit:4;stroke-dasharray:none;stroke-opacity:1;display:inline"
       d="M 305.39135,29.338718 L 302.80366,32.313068 L 301.869,33.559278 L 299.9997,35.428578 L 299.3766,38.388308 L 297.5073,39.790288 L 297.5073,41.503818 L 298.75349,43.217348 L 299.84393,44.619328 L 299.68816,47.734828 L 297.97463,50.383008 L 297.35152,56.458248 L 295.94954,58.483328 L 291.27629,60.664178 L 286.29148,63.468138 L 275.69875,64.402788 L 271.18127,65.648988 L 266.97533,67.674068 L 266.04068,70.322248 L 265.57335,78.889898 L 264.17138,79.668768 L 263.70405,83.718938 L 262.7694,86.834428 L 261.67897,89.482608 L 260.43276,92.286578 L 261.67897,94.467438 L 259.49811,96.025188 L 259.65389,98.206048 L 258.09614,99.296468 L 259.65389,101.94464 L 258.71924,104.1255 L 257.00571,104.7486 L 256.22683,109.73342 L 258.56346,109.11032 L 261.83475,107.70833 L 267.1311,106.92946 L 274.7641,105.52747 L 278.19115,103.81395 L 281.30666,103.03507 L 277.72383,112.22581 L 272.27169,125.31095 L 267.59844,133.41126 L 262.14629,140.73271 L 255.29218,148.20992 L 253.2671,152.1043 L 245.32255,159.89306 L 239.40309,165.81253 L 233.01631,171.42044 L 228.34304,173.6013 L 222.11203,174.2244 L 218.99652,176.7168 L 216.0368,181.39007 L 212.92129,184.03825 L 210.58467,185.28444 L 208.24803,184.19402 L 205.2883,184.34979 L 199.68039,185.90755 L 195.00713,189.95771 L 186.75103,196.03295 L 178.49495,203.19862 L 169.45997,206.93722 L 158.08838,211.4547 L 144.38014,216.12797 L 137.99336,218.77615 L 146.5605,226.26674 L 143.256,229.35093 L 141.053,230.67273 L 139.84136,233.53662 L 137.41807,235.73962 L 135.21507,232.76558 L 133.34252,230.45243 L 131.24967,226.81749 L 129.04668,229.46108 L 125.41174,232.21483 L 122.32754,234.52797 L 115.6084,234.41783 L 114.17646,232.10467 L 113.95615,225.27539 L 111.20241,223.95359 L 107.23702,225.16524 L 104.59343,227.69869 L 101.61938,229.13063 L 100.18744,233.42647 L 98.31489,234.63813 L 98.75548,236.07007 L 99.08594,236.95127 L 97.65398,238.49337 L 95.45099,241.13695 L 94.01905,242.67905 L 92.03635,242.45875 L 91.045,239.81517 L 88.95215,238.16292 L 87.52021,236.62082 L 84.76646,237.06141 L 81.79242,238.27307 L 80.36048,238.27307 L 79.91987,240.36592 L 77.71688,243.67041 L 73.86164,246.9749 L 73.20073,250.60984 L 70.66729,252.48239 L 68.79474,254.24479 L 67.03234,256.11734 L 66.92219,258.87108 L 68.35414,260.19288 L 70.33684,258.65078 L 71.21804,259.64213 L 72.20939,258.43048 L 74.74283,259.86242 L 76.83568,262.39587 L 79.03868,263.49737 L 79.47927,267.13231 L 81.02137,269.5556 L 79.69957,271.09771 L 78.92852,274.4022 L 77.38643,274.8428 L 76.17478,273.41084 L 74.85298,274.8428 L 73.86164,277.37624 L 75.29358,278.47774 L 74.41239,281.23148 L 72.42968,284.42583 L 71.10788,287.06943 L 69.56579,290.37392 L 67.47294,292.79722 L 66.37145,293.12766 L 65.8207,292.02616 L 64.38875,290.70437 L 62.2959,289.71301 L 61.08426,289.71301 L 61.08426,292.02616 L 58.99141,292.90736 L 57.11886,296.65246 L 54.69557,299.07575 L 52.27227,300.9483 L 52.93317,302.38024 L 53.15347,304.58324 L 54.25497,305.57459 L 53.37377,306.89639 L 51.06062,308.54864 L 49.29823,309.76028 L 47.42568,311.19223 L 45.77343,313.39523 L 43.90089,318.79257 L 42.02834,321.65646 L 39.82535,325.40155 L 38.834,327.60455 L 43.46029,329.9177 L 48.41703,332.89174 L 51.06062,336.19624 L 56.12751,337.84848 L 58.77111,339.94133 L 61.74516,341.92402 L 62.40605,343.02552 L 64.82935,340.71237 L 67.03234,338.50938 L 67.25264,332.89174 L 68.57444,331.12934 L 70.66729,332.56129 L 71.43834,332.45114 L 72.20939,329.80754 L 72.98044,326.8335 L 75.40374,323.63915 L 78.81837,321.326 L 81.90258,319.23316 L 86.63901,318.24181 L 88.95216,319.45345 L 91.04501,321.21585 L 94.90025,322.97825 L 97.43369,324.96095 L 100.51788,328.37559 L 103.71223,327.71469 L 106.13553,328.81619 L 108.33852,332.67143 L 112.30392,337.84847 L 113.29527,340.71237 L 113.07497,344.34731 L 116.70991,343.79656 L 118.25201,342.58492 L 119.02306,340.93267 L 117.81141,339.39057 L 119.02306,337.95863 L 122.98845,342.14431 L 125.85234,345.44881 L 127.50459,348.64315 L 128.71624,350.84615 L 130.58878,349.6345 L 131.69028,350.62584 L 129.92789,352.49839 L 126.6234,355.47244 L 125.5219,358.66678 L 124.64069,361.97128 L 125.96249,368.24981 L 128.71624,372.54566 L 131.13953,371.44416 L 134.44403,370.34266 L 136.75717,366.15697 L 139.40077,360.97994 L 140.61241,359.65814 L 141.82407,360.86978 L 143.03571,363.73368 L 146.7808,366.81787 L 147.11125,368.69042 L 151.29695,371.66446 L 153.94055,374.08776 L 155.92324,376.29075 L 155.92324,380.47645 L 156.91459,381.46779 L 158.89729,384.77228 L 160.76983,387.96663 L 162.97283,391.49142 L 168.37017,393.47413 L 173.43705,396.00757 L 178.3938,396.88876 L 181.0374,399.09176 L 183.02009,402.28611 L 184.89264,405.26015 L 185.77384,407.79359 L 188.52758,409.99659 L 191.39148,413.74168 L 191.50162,416.27514 L 189.29863,418.91872 L 190.62043,421.56232 L 194.14522,422.77397 L 197.11927,423.43487 L 197.78016,426.84952 L 202.51661,420.79127 L 205.3805,418.25783 L 207.25304,413.96198 L 210.44739,409.00525 L 214.30263,403.3876 L 215.73459,401.95566 L 214.74323,397.88012 L 214.52293,389.50873 L 215.84473,387.63618 L 217.27668,385.54333 L 214.96354,384.22153 L 213.20113,383.23019 L 214.63308,380.8069 L 216.28534,379.4851 L 218.59847,378.49375 L 221.02177,379.0445 L 222.67402,379.9257 L 223.00446,381.9084 L 226.41911,382.23884 L 230.05405,383.23019 L 234.5702,384.55199 L 237.21379,385.65349 L 239.74724,384.55199 L 241.28934,382.56929 L 242.50098,378.49375 L 242.28068,374.30806 L 243.71263,373.20656 L 243.05173,371.00357 L 239.30664,369.68177 L 236.00214,368.80057 L 234.46005,367.03817 L 232.25705,365.71637 L 233.689,363.51338 L 236.22244,360.97994 L 237.65439,357.67543 L 238.31529,352.60855 L 239.85739,349.30406 L 240.62843,346.10971 L 242.06039,337.84847 L 240.73859,335.64548 L 241.28934,332.89173 L 242.61114,332.56129 L 243.71263,335.09473 L 245.69533,338.50938 L 248.00848,340.93267 L 249.44042,342.91536 L 252.52461,342.47476 L 254.06671,341.59357 L 254.83776,343.79656 L 257.3712,347.10105 L 259.24375,350.0751 L 261.44675,351.94764 L 263.09899,351.72735 L 264.31065,350.40555 L 267.50499,349.30406 L 268.38619,347.32135 L 268.05574,345.77926 L 267.06439,344.67777 L 267.28469,338.06877 L 268.82678,338.50938 L 269.81813,338.94997 L 271.25008,337.95863 L 273.45307,337.40788 L 274.66473,335.20488 L 277.30832,332.89173 L 279.73162,331.56993 L 282.59551,330.02783 L 285.45941,330.79888 L 288.43345,331.56993 L 290.96689,329.91769 L 292.7293,328.70604 L 294.71199,327.71469 L 295.37288,320.4448 L 297.24543,318.79256 L 299.44843,312.18357 L 299.55858,304.36294 L 298.45708,302.93098 L 297.13529,301.27874 L 294.60184,298.74529 L 291.29734,296.1017 L 288.3233,294.66975 L 285.45941,293.78856 L 280.17221,292.3566 L 275.43578,291.69571 L 273.01248,291.03481 L 268.93694,290.48406 L 267.83544,289.05211 L 255.60881,288.83181 L 254.50732,287.73031 L 259.02345,284.42582 L 261.22644,283.10402 L 261.44675,281.45177 L 260.2351,280.01983 L 258.80315,278.25743 L 258.2524,276.82548 L 260.896,274.18188 L 262.87869,271.97889 L 264.31065,269.88605 L 266.07304,268.12365 L 268.38619,266.91201 L 270.03843,267.3526 L 271.80083,268.78455 L 274.33428,269.115 L 276.86772,267.68305 L 280.06207,266.14096 L 283.36656,265.36991 L 285.12896,264.37855 L 286.45075,261.40451 L 290.0857,260.96392 L 293.50034,259.31167 L 295.92363,257.87971 L 299.11798,257.21882 L 304.73562,254.90567 L 308.70102,252.48237 L 315.31,249.61849 L 319.2754,246.75459 L 321.69868,244.33129 L 318.72465,239.705 L 315.86075,236.1802 L 312.88671,232.43511 L 309.58221,226.70732 L 308.81116,222.63178 L 307.26906,219.98818 L 306.16757,217.78519 L 304.73562,213.8198 L 302.53263,210.84576 L 303.63412,208.86305 L 304.95592,206.77021 L 305.28637,204.89767 L 304.07472,200.93227 L 303.30368,199.39017 L 301.32097,198.61913 C 301.32097,198.61913 297.68603,198.72927 297.13529,198.72927 C 296.58454,198.72927 294.93229,198.06838 294.93229,198.06838 L 294.38154,195.75523 L 292.94959,194.43343 L 292.83944,191.67969 L 294.05108,188.81579 L 293.05974,187.2737 L 295.15259,183.7489 L 296.58454,180.77486 L 297.24543,179.34292 L 302.75293,178.35156 L 307.26906,176.91962 L 309.91266,174.93692 L 313.10701,172.07303 L 315.75061,168.98883 L 319.16524,167.33658 L 317.18255,165.35389 L 317.62314,164.25239 L 320.92764,160.61744 L 324.89303,157.4231 L 327.97723,155.55056 L 330.62082,154.00846 L 332.27306,152.68666 L 332.38322,151.25471 L 331.94262,149.60247 L 333.70502,148.17052 L 335.02682,147.28932 L 331.50203,142.66302 L 330.62082,141.12094 L 332.71367,138.14689 L 337.33996,133.3003 L 336.34862,130.98715 L 334.69636,128.67401 L 333.92532,126.80146 L 334.03547,125.58981 L 335.24711,125.25936 L 335.46741,120.85337 L 333.92532,118.98082 L 334.47607,116.11692 L 336.78921,114.68498 L 339.76326,112.81243 L 342.84745,109.28764 L 345.49104,107.52525 L 349.23614,105.87299 L 353.20154,104.66135 L 354.74363,103.4497 L 356.17558,103.33955 L 357.82783,104.22074 L 360.80187,105.98314 L 364.32667,105.98314 L 366.6398,104.99179 L 368.29205,104.3309 L 368.29205,104.3309 L 368.4219,101.90911 L 366.88718,99.666058 L 366.41496,97.541058 L 366.17884,93.645218 L 364.76217,91.520208 L 363.58162,91.520208 L 362.51912,89.631318 L 361.45662,88.096598 L 362.28301,87.152148 L 362.51912,86.089648 L 361.81079,84.672978 L 361.10245,82.784098 L 359.68578,81.249378 L 357.56078,78.770208 L 356.38023,77.117418 L 354.37328,75.110478 L 352.60244,74.047978 L 350.94967,73.103528 L 349.76911,71.804918 L 347.88022,68.499358 L 346.22744,66.138248 L 344.92883,63.186858 L 345.16494,60.825748 L 347.17188,58.228528 L 348.82467,56.575748 L 349.29689,48.429908 L 352.01217,47.367408 L 352.95661,41.346568 L 354.01911,39.693788 L 354.01911,37.450738 L 351.53994,34.971568 L 351.72746,34.753184 L 346.17886,31.099225 L 344.28421,29.610574 L 340.63025,29.610574 L 337.38229,30.693229 L 329.66837,32.181879 L 319.11249,34.753184 L 314.5112,35.835839 L 315.18786,30.693229 L 311.26324,28.121924 L 308.01528,26.36261 L 306.79729,27.715928 L 305.39135,29.338718 z "
       id="path39301"
       sodipodi:nodetypes="ccccccccccccccccccccccccccccccccccccccccccccccccccccccccccccccccccccccccccccccccccccccccccccccccccccccccccccccccccccccccccccccccccccccccccccccccccccccccccccccccccccccccccccccccccccccccccccccccccccccccccccccccccccccccccccccccccccccccccccccccccccccccccccccccccccccccccccccccccccccccccccccccccccccccccccccccccccccccccccccccccccccccccccccccccccccccccccccccccccccsccccccccccccccccccccccccccccccccccccccccccccccccccccccccccccccccccccccccccccccccccc" />
    <path
       style="fill:#d3d3d3;fill-opacity:1;fill-rule:evenodd;stroke:none;stroke-width:2.00000048;stroke-linecap:butt;stroke-linejoin:round;stroke-miterlimit:4;stroke-dasharray:none;stroke-opacity:1;display:inline"
       d="M 4.4750002,70.551518 L 9.9029371,68.302758 L 14.920518,65.997378 L 19.395658,63.963228 L 21.022982,60.844187 L 22.107865,57.589539 L 30.244487,57.453929 L 32.143027,59.759304 L 33.905957,62.878338 L 35.262067,64.370058 L 39.194767,61.929068 L 41.500137,60.844187 L 45.839667,59.759304 L 47.331387,58.267591 L 48.416267,57.182708 L 48.280657,54.606112 L 47.466997,52.978789 L 60.214367,52.165126 L 60.214367,48.503649 L 61.841677,48.368038 L 64.418287,49.1817 L 67.537317,50.537803 L 71.334407,52.165126 L 76.351987,52.029516 L 80.827127,52.436348 L 84.759822,54.199281 L 87.878862,52.571958 L 111.88189,52.571958 L 115.00093,55.690995 L 121.64583,58.131981 L 123.8156,59.623694 L 129.51124,59.894914 L 133.30833,61.386628 L 141.44494,63.420778 L 146.73375,62.200288 L 148.36106,63.013948 L 158.12502,62.878338 L 163.41381,61.793458 L 175.21191,62.200288 L 177.51728,62.878338 L 176.70363,59.352473 L 178.60217,57.725149 L 178.05973,52.300736 L 176.56801,44.164119 L 177.24607,34.807007 L 178.87339,28.975763 L 179.68705,28.162102 L 185.51829,31.281139 L 193.65492,34.671397 L 200.16421,39.146537 L 207.35155,43.350456 L 212.64036,46.062663 L 217.11549,48.368038 L 218.87842,46.333883 L 220.91258,44.97778 L 222.81113,42.672404 L 224.43846,41.723133 L 224.57406,32.230411 L 225.38773,22.466469 L 225.93016,19.076211 L 226.74383,16.092784 L 225.1165,12.566915 L 224.96143,9.0410481 L 224.16723,5.9220101 L 225.52333,4.0234661 L 227.15066,4.4302971 L 227.7223,8.2273861 L 230.81214,10.261541 L 234.338,11.888864 L 237.05021,14.872291 L 239.76242,16.364004 L 242.74584,14.872291 L 246.67854,14.872291 L 247.76343,16.499614 L 248.57709,18.262548 L 252.91662,18.262548 L 254.54394,19.347431 L 257.66298,20.296703 L 261.46006,19.347431 L 267.02008,17.720107 L 271.35962,17.584497 L 271.0884,19.076211 L 272.98695,21.517196 L 275.29232,22.059637 L 275.42793,24.093792 L 277.19087,25.043064 L 281.25917,25.992336 L 282.75089,26.263557 L 283.42893,28.568932 L 286.14115,27.212829 L 288.71774,25.992336 L 290.7519,27.890881 L 292.24361,28.975763 L 293.19287,30.060646 L 297.3968,28.568932 L 300.24461,27.48405 L 301.60072,28.975763 L 302.82121,27.48405 L 304.44853,28.840153 L 305.3978,29.111373 L 306.75392,28.162102 L 308.24562,26.263557 L 310.82222,27.61966 L 315.16175,31.009918 L 314.61931,35.891889 L 320.72178,34.671397 L 326.55301,33.179684 L 333.19792,31.823579 L 338.62233,30.196256 L 342.96186,29.789425 L 345.67407,30.874308 L 349.47116,33.450904 L 352.04776,34.942617 L 354.48875,33.722124 L 354.62435,32.366021 L 353.26825,29.111373 L 352.04776,25.043064 L 351.09849,21.652807 L 350.0136,19.347431 L 349.19994,17.855718 L 352.7258,12.973747 L 356.79412,7.9561661 L 357.32139,5.5769491 L 357.97125,5.2016028 L 230.04149,3.751152 L 4.0612622,3.751152 L 4.4750002,70.551518 z "
       id="path53430"
       sodipodi:nodetypes="cccccccccccccccccccccccccccccccccccccccccccccccccccccccccccccccccccccccccccccccccccccccccccccccccccccccccccccccccccccccccc" />
    <path
       style="fill:#d3d3d3;fill-opacity:1;fill-rule:evenodd;stroke:none;stroke-width:2;stroke-linecap:butt;stroke-linejoin:round;stroke-miterlimit:4;stroke-dasharray:none;stroke-opacity:1;display:inline"
       d="M 450.01196,232.95152 L 446.27334,231.54954 L 439.73078,231.39377 L 439.26345,227.81094 L 437.7057,221.1126 L 434.12287,213.01228 L 433.18822,208.96211 L 434.27864,203.9773 L 435.05752,198.83672 L 434.27864,194.47501 L 433.34399,190.26908 L 432.25357,185.59582 L 431.16313,179.3648 L 431.63046,174.22421 L 432.72089,169.39518 L 432.87667,156.6216 L 431.94201,148.98861 L 430.38426,146.4962 L 429.60539,144.15958 L 426.3341,139.48631 L 425.711,130.45134 L 427.42453,125.46653 L 428.82651,116.43157 L 429.91693,112.84874 L 428.67074,110.04477 L 428.40326,106.208 L 429.01864,103.95163 C 429.01864,103.95163 430.04426,103.33626 430.45451,103.33626 L 432.40319,104.36188 L 434.04419,103.43882 L 436.198,104.87469 L 443.68505,104.36188 L 443.58249,110.61819 L 442.24918,111.33612 L 441.22356,115.02837 L 439.99281,116.66936 L 439.58256,121.18211 L 438.86462,121.79748 L 439.37743,123.54104 L 441.83893,124.25898 L 444.30043,123.13079 L 446.04399,121.69492 L 448.09523,120.77186"
       id="path56996"
       sodipodi:nodetypes="cccccccccccccccccccccccccccs" />
    <path
       style="fill:#d3d3d3;fill-opacity:1;fill-rule:evenodd;stroke:none;stroke-width:2;stroke-linecap:round;stroke-linejoin:round;stroke-miterlimit:4;stroke-dasharray:none;stroke-opacity:1;display:inline"
       d="M 448.09535,249.38503 L 445.22361,249.69271 L 442.55699,251.43627 L 440.19805,253.38496 L 437.42887,255.12852 L 434.96737,256.15414 L 433.94175,262.20532 L 433.01869,265.38475 L 429.83925,266.00013 L 428.60851,264.56426 L 427.2752,264.87194 L 426.96751,267.12831 L 422.96758,267.84625 L 420.60864,266.6155 L 418.24971,267.84625 L 417.01896,268.97444 L 418.14715,270.20519 L 417.53177,271.12825 L 414.96771,272.87181 L 412.60878,273.58974 L 411.68572,270.82056 L 409.12166,266.41038 L 405.94223,265.89757 L 401.32692,267.23088 L 397.8398,269.58981 L 393.22449,272.66668 L 389.22456,273.58974 L 388.40406,275.64099 L 385.84,279.33324 L 383.27594,284.56392 L 380.50676,289.69203 L 379.07089,291.94841 L 378.25039,291.64072 L 375.78889,289.99972 L 372.40433,286.5126 L 366.86597,281.0768 L 364.50703,278.92299 L 362.55835,276.9743 L 360.53614,277.00509 L 359.28614,278.61223 L 356.07186,281.46937 L 352.14329,284.32651 L 350.89329,285.75509 L 349.10757,286.46937 L 347.85757,287.5408 L 347.679,289.68366 L 346.429,290.21937 L 345.53614,291.82652 L 344.28614,295.0408 L 341.429,297.00509 L 338.21471,299.14794 L 336.78614,300.21937 L 336.25043,301.46937 L 337.50043,303.25509 L 339.46471,303.96937 L 345.71471,303.25509 L 347.50043,302.89794 L 349.10757,304.68366 L 352.14329,306.64794 L 352.50043,308.7908 L 350.89329,313.07652 L 350.179,315.21937 L 348.57186,316.46937 L 344.28614,316.46937 L 342.85757,318.7908 L 341.96471,320.93366 L 341.25043,322.18366 L 340.35757,330.39795 L 339.10757,336.46937 L 338.03614,344.32652 L 337.85757,350.39795 L 336.07186,352.18366 L 336.429,359.14795 L 334.46471,361.11223 L 333.03614,363.43366 L 332.679,364.68366 L 335.00043,366.11223 L 334.64329,369.32652 L 334.28614,370.93366 L 335.35757,372.36223 L 335.179,379.86223 L 336.60757,381.46938 L 341.07186,382.18366 L 343.929,380.93366 L 347.679,381.11223 L 347.32186,385.21938 L 345.35757,387.18366 L 343.57186,387.89795 L 343.21471,392.54081 L 346.429,395.04081 L 347.85757,397.36224 L 347.679,403.07652 L 345.179,401.64795 L 342.14699,400.39795 L 341.87125,406.1062 L 345.20729,410.45755 L 347.38296,413.06836 L 350.28386,415.53413 L 351.44423,418.72512 L 345.93251,421.62602 L 340.13071,424.52692 L 337.95503,425.83233 L 337.95503,428.44314 L 339.84062,431.63413 L 339.84062,436.85576 L 341.58116,438.45125 L 342.45143,440.77197 L 344.04693,440.77197 L 343.3217,443.38279 L 341.43611,444.10801 L 341.29107,446.13864 L 342.88657,448.60441 L 344.04693,448.16927 L 346.80278,444.83324 L 348.39828,443.67288 L 350.719,445.70351 L 353.18477,448.8945 L 354.34513,450.1999 L 356.08567,449.47468 L 357.68116,448.74945 L 359.71179,450.63504 L 358.69648,452.52063 L 358.40639,454.98639 L 358.40639,456.43684 L 448.04425,457.16207 L 448.76947,421.91611 L 448.09535,249.38503 z "
       id="path57873"
       sodipodi:nodetypes="cccccccccccccccccccccccccccccccccccccccccccccccccccccccccccccccccccccccccccccccccccccccccccccc" />
  </g>
  <g
     inkscape:groupmode="layer"
     id="layer5"
     inkscape:label="Water"
     style="display:inline"
     sodipodi:insensitive="true">
    <path
       style="fill:#0080ff;fill-opacity:1;fill-rule:evenodd;stroke:none;stroke-width:1px;stroke-linecap:butt;stroke-linejoin:miter;stroke-opacity:1"
       d="M 231.07241,243.95509 L 229.30464,221.98427 L 227.0318,205.06422 L 223.18002,218.6181 L 221.91291,223.07687 L 221.23773,228.07727 L 221.16065,232.85761 L 221.10244,241.79433 L 219.26528,241.92694 L 219.12775,232.89606 L 219.09257,226.82177 L 219.60981,223.23829 L 221.11941,218.05523 L 222.62153,212.77001 L 225.43353,203.51955 L 226.52672,197.99315 L 228.54703,190.66954 L 233.85033,181.83071 L 243.19424,168.44618 L 254.55845,157.58704 L 265.67013,144.96014 L 274.25643,130.06039 L 281.83258,113.64541 L 285.87319,101.0185 L 292.94425,83.845904 L 295.2171,77.279912 L 294.45948,73.49184 L 277.79196,77.784989 L 276.78181,72.229149 L 299.76278,66.168234 L 303.29832,55.561631 L 306.83385,41.924571 L 309.86431,33.590812 L 312.64223,25.257053 L 313.39984,11.114917 L 313.14731,5.0540015 L 315.16761,5.0540015 L 314.41,9.8522264 L 314.41,20.458829 L 315.92523,25.509592 L 315.16761,40.661881 L 310.11685,50.25833 L 305.06608,62.380161 L 299.25771,78.795141 L 291.68156,95.967735 L 291.42902,99.755808 L 309.1067,106.3218 L 307.33893,110.86749 L 288.90364,105.56419 L 282.59019,117.18094 L 277.28689,128.79769 L 268.95313,144.7076 L 258.09399,157.08197 L 255.82115,161.12258 L 261.12445,172.73933 L 257.33637,175.51725 L 252.03307,165.16319 L 246.47723,169.45634 L 242.9417,175.01218 L 240.41632,179.30532 L 254.55845,213.14544 L 251.27546,219.20635 L 235.61809,184.86116 L 231.83002,189.91193 L 230.31479,194.45761 L 230.31479,203.04391 L 231.32495,208.34721 L 238.14348,211.37767 L 237.6384,216.42843 L 231.32495,213.90305 L 231.83002,219.45889 L 239.6587,222.23681 L 239.40617,226.27742 L 232.58764,223.75204 L 232.58764,229.30788 L 239.91124,232.33834 L 239.6587,235.87387 L 233.59779,234.35864 L 234.10286,243.70255 L 231.07241,243.95509 z "
       id="path29553"
       sodipodi:nodetypes="cccccccccccccccccccccccccccccccccccccccccccccccccccccccccccccccccccccccccccccccc" />
    <path
       style="fill:none;fill-opacity:0.75;fill-rule:evenodd;stroke:#0080ff;stroke-width:2.29999995;stroke-linecap:butt;stroke-linejoin:round;stroke-miterlimit:4;stroke-dasharray:none;stroke-opacity:1"
       d="M 170.27222,455.48623 L 171.76487,452.51373 L 174.98465,451.22477 L 179.21532,449.91206 L 183.79069,447.54503 L 185.47459,443.82845 L 185.19186,440.81014 C 185.43653,440.03228 185.68119,437.72392 185.92586,438.64838 L 189.14102,435.78951 L 192.48433,433.45355 L 196.747,427.94087 L 201.213,422.27527 L 206.3164,416.69852 L 211.48388,407.70328 L 215.88581,401.96163 L 215.50303,400.23914 L 214.92887,396.41138 L 214.44442,390.95084 L 215.18434,388.9481 L 216.19255,386.72835 L 220.83626,379.12408 L 223.57979,373.70286 L 227.63738,368.24404 L 229.48891,366.94364 L 232.34519,365.59789 L 235.21601,362.34429 L 237.32128,358.70792 L 237.32128,354.88015 L 239.04377,350.861 L 240.38349,345.88491 L 241.34043,342.05715 L 241.34043,339.37771 L 241.34043,336.3155 L 240.38349,334.40162 L 239.61794,331.91358 L 238.08683,329.80831 L 236.17295,328.08581 L 234.25907,327.32026 L 231.57964,327.70304 L 229.28298,327.70304 L 227.75187,326.55471 L 226.98632,323.4925 L 225.45522,319.09057 L 226.02938,317.55947 L 227.56048,314.88003 L 231.38825,313.15754 L 235.02462,310.28672 L 235.02462,308.18145 L 235.4074,306.07618 L 237.70406,302.43981 L 241.53182,298.99482 L 244.78542,297.46371 L 247.46485,296.50677 L 249.9529,297.27233 L 252.44094,297.46371 L 257.60842,296.69816 L 262.01035,294.01873 L 267.94338,291.72207 L 273.49364,290.76513 L 281.14916,290.95652 L 290.90996,294.59289 L 297.03438,299.18621 L 300.47936,305.11924 L 300.86214,309.90394 L 299.9052,314.49726 L 297.22576,318.32502 L 295.50327,321.77001 L 295.12049,326.55471 L 293.97217,330.95664 L 292.63245,333.82746 L 292.82384,337.08106 L 294.73772,340.71743 L 293.97217,343.77964 L 293.58939,346.45907 L 294.35494,348.37296 L 297.03438,352.96627 L 298.75687,356.60265 L 300.28797,362.53568 L 302.96741,367.51177 L 305.45545,370.57398 L 307.56072,373.25341 L 314.33095,379.33023 L 318.68371,384.61572 L 325.52375,388.34665 L 334.54016,394.56487 L 341.69111,400.47217 L 348.22024,402.33764 L 358.4803,403.27037 L 367.80763,396.74124 L 375.58041,388.96847 L 381.1768,385.54845 L 387.39502,385.54845 L 396.72235,381.1957 L 412.88972,372.49019 L 424.08251,369.69199 L 431.85528,366.27197 L 438.0735,363.47377 L 444.60263,361.2974 L 448.64448,360.05375"
       id="path32305"
       sodipodi:nodetypes="ccccccccccccccccccccccccccccccccccccccccccccccccccccccccccccccccccccccccccccccccccccccccccccccccccc" />
  </g>
  <g
     inkscape:groupmode="layer"
     id="layer4"
     inkscape:label="Grenzen"
     style="display:inline"
     sodipodi:insensitive="true">
    <path
       style="fill:none;fill-opacity:0.75;fill-rule:evenodd;stroke:#000000;stroke-width:1.60000026;stroke-linecap:butt;stroke-linejoin:round;stroke-miterlimit:4;stroke-dasharray:none;stroke-opacity:1"
       d="M 305.39164,29.3388 L 302.80395,32.313151 L 301.86929,33.559354 L 299.99999,35.428658 L 299.37689,38.38839 L 297.50759,39.790367 L 297.50759,41.503897 L 298.75378,43.217425 L 299.84422,44.619403 L 299.68845,47.73491 L 297.97492,50.38309 L 297.35181,56.458328 L 295.94983,58.483408 L 291.27658,60.664262 L 286.29177,63.468221 L 275.69904,64.402871 L 271.18156,65.649071 L 266.97562,67.674151 L 266.04097,70.322331 L 265.57364,78.889981 L 264.17167,79.668851 L 263.70434,83.719021 L 262.76969,86.834511 L 261.67926,89.482691 L 260.43305,92.286661 L 261.67926,94.467514 L 259.4984,96.025264 L 259.65418,98.206124 L 258.09643,99.296544 L 259.65418,101.94472 L 258.71953,104.12558 L 257.006,104.74868 L 256.22712,109.7335 L 258.56375,109.1104 L 261.83504,107.70841 L 267.13139,106.92954 L 274.76439,105.52755 L 278.19144,103.81403 L 281.30695,103.03515 L 277.72412,112.22589 L 272.27198,125.31103 L 267.59873,133.41134 L 262.14658,140.73279 L 255.29247,148.21 L 253.26739,152.10438 L 245.32284,159.89314 L 239.40338,165.81261 L 233.0166,171.42052 L 228.34333,173.60138 L 222.11232,174.22448 L 218.99681,176.71688 L 216.03709,181.39015 L 212.92158,184.03833 L 210.58496,185.28452 L 208.24832,184.1941 L 205.28859,184.34987 L 199.68068,185.90763 L 195.00742,189.95779 L 186.75132,196.03303 L 178.49524,203.1987 L 169.46026,206.9373 L 158.08867,211.45478 L 144.38043,216.12805 L 137.99365,218.77623 L 146.56079,226.26682 L 143.25629,229.35101 L 141.05329,230.67281 L 139.84165,233.5367 L 137.41836,235.7397 L 135.21536,232.76566 L 133.34281,230.45251 L 131.24996,226.81757 L 129.04697,229.46116 L 125.41203,232.21491 L 122.32783,234.52805 L 115.60869,234.41791 L 114.17675,232.10475 L 113.95644,225.27547 L 111.2027,223.95367 L 107.23731,225.16532 L 104.59372,227.69877 L 101.61967,229.13071 L 100.18773,233.42655 L 98.315176,234.63821 L 98.755766,236.07015 L 99.086226,236.95135 L 97.654266,238.49345 L 95.451276,241.13703 L 94.019336,242.67913 L 92.036636,242.45883 L 91.045286,239.81525 L 88.952436,238.163 L 87.520496,236.6209 L 84.766746,237.06149 L 81.792706,238.27315 L 80.360771,238.27315 L 79.920161,240.366 L 77.717171,243.67049 L 73.861931,246.97498 L 73.201021,250.60992 L 70.667581,252.48247 L 68.795031,254.24487 L 67.032631,256.11742 L 66.922481,258.87116 L 68.354431,260.19296 L 70.337131,258.65086 L 71.218331,259.64221 L 72.209681,258.43056 L 74.743121,259.8625 L 76.835971,262.39595 L 79.038971,263.49745 L 79.479561,267.13239 L 81.021661,269.55568 L 79.699861,271.09779 L 78.928811,274.40228 L 77.386721,274.84288 L 76.175071,273.41092 L 74.853271,274.84288 L 73.861931,277.37632 L 75.293871,278.47782 L 74.412681,281.23156 L 72.429971,284.42591 L 71.108171,287.06951 L 69.566081,290.374 L 67.473231,292.7973 L 66.371741,293.12774 L 65.820991,292.02624 L 64.389041,290.70445 L 62.296191,289.71309 L 61.084551,289.71309 L 61.084551,292.02624 L 58.991701,292.90744 L 57.119151,296.65254 L 54.695861,299.07583 L 52.272561,300.94838 L 52.933461,302.38032 L 53.153761,304.58332 L 54.255261,305.57467 L 53.374061,306.89647 L 51.060911,308.54872 L 49.298521,309.76036 L 47.425971,311.19231 L 45.773721,313.39531 L 43.901181,318.79265 L 42.028631,321.65654 L 39.825641,325.40163 L 38.834291,327.60463 L 43.460581,329.91778 L 48.417321,332.89182 L 51.060911,336.19632 L 56.127801,337.84856 L 58.771401,339.94141 L 61.745451,341.9241 L 62.406341,343.0256 L 64.829641,340.71245 L 67.032631,338.50946 L 67.252931,332.89182 L 68.574731,331.12942 L 70.667581,332.56137 L 71.438631,332.45122 L 72.209681,329.80762 L 72.980731,326.83358 L 75.404031,323.63923 L 78.818661,321.32608 L 81.902866,319.23324 L 86.639296,318.24189 L 88.952446,319.45353 L 91.045296,321.21593 L 94.900536,322.97833 L 97.433976,324.96103 L 100.51817,328.37567 L 103.71252,327.71477 L 106.13582,328.81627 L 108.33881,332.67151 L 112.30421,337.84855 L 113.29556,340.71245 L 113.07526,344.34739 L 116.7102,343.79664 L 118.2523,342.585 L 119.02335,340.93275 L 117.8117,339.39065 L 119.02335,337.95871 L 122.98874,342.14439 L 125.85263,345.44889 L 127.50488,348.64323 L 128.71653,350.84623 L 130.58907,349.63458 L 131.69057,350.62592 L 129.92818,352.49847 L 126.62369,355.47252 L 125.52219,358.66686 L 124.64098,361.97136 L 125.96278,368.24989 L 128.71653,372.54574 L 131.13982,371.44424 L 134.44432,370.34274 L 136.75746,366.15705 L 139.40106,360.98002 L 140.6127,359.65822 L 141.82436,360.86986 L 143.036,363.73376 L 146.78109,366.81795 L 147.11154,368.6905 L 151.29724,371.66454 L 153.94084,374.08784 L 155.92353,376.29083 L 155.92353,380.47653 L 156.91488,381.46787 L 158.89758,384.77236 L 160.77012,387.96671 L 162.97312,391.4915 L 168.37046,393.47421 L 173.43734,396.00765 L 178.39409,396.88884 L 181.03769,399.09184 L 183.02038,402.28619 L 184.89293,405.26023 L 185.77413,407.79367 L 188.52787,409.99667 L 191.39177,413.74176 L 191.50191,416.27522 L 189.29892,418.9188 L 190.62072,421.5624 L 194.14551,422.77405 L 197.11956,423.43495 L 197.78045,426.8496 L 202.5169,420.79135 L 205.38079,418.25791 L 207.25333,413.96206 L 210.44768,409.00533 L 214.30292,403.38768 L 215.73488,401.95574 L 214.74352,397.8802 L 214.52322,389.50881 L 215.84502,387.63626 L 217.27697,385.54341 L 214.96383,384.22161 L 213.20142,383.23027 L 214.63337,380.80698 L 216.28563,379.48518 L 218.59876,378.49383 L 221.02206,379.04458 L 222.67431,379.92578 L 223.00475,381.90848 L 226.4194,382.23892 L 230.05434,383.23027 L 234.57049,384.55207 L 237.21408,385.65357 L 239.74753,384.55207 L 241.28963,382.56937 L 242.50127,378.49383 L 242.28097,374.30814 L 243.71292,373.20664 L 243.05202,371.00365 L 239.30693,369.68185 L 236.00243,368.80065 L 234.46034,367.03825 L 232.25734,365.71645 L 233.68929,363.51346 L 236.22273,360.98002 L 237.65468,357.67551 L 238.31558,352.60863 L 239.85768,349.30414 L 240.62872,346.10979 L 242.06068,337.84855 L 240.73888,335.64556 L 241.28963,332.89181 L 242.61143,332.56137 L 243.71292,335.09481 L 245.69562,338.50946 L 248.00877,340.93275 L 249.44071,342.91544 L 252.5249,342.47484 L 254.067,341.59365 L 254.83805,343.79664 L 257.37149,347.10113 L 259.24404,350.07518 L 261.44704,351.94772 L 263.09928,351.72743 L 264.31094,350.40563 L 267.50528,349.30414 L 268.38648,347.32143 L 268.05603,345.77934 L 267.06468,344.67785 L 267.28498,338.06885 L 268.82707,338.50946 L 269.81842,338.95005 L 271.25037,337.95871 L 273.45336,337.40796 L 274.66502,335.20496 L 277.30861,332.89181 L 279.73191,331.57001 L 282.5958,330.02791 L 285.4597,330.79896 L 288.43374,331.57001 L 290.96718,329.91777 L 292.72959,328.70612 L 294.71228,327.71477 L 295.37317,320.44488 L 297.24572,318.79264 L 299.44872,312.18365 L 299.55887,304.36302 L 298.45737,302.93106 L 297.13558,301.27882 L 294.60213,298.74537 L 291.29763,296.10178 L 288.32359,294.66983 L 285.4597,293.78864 L 280.1725,292.35668 L 275.43607,291.69579 L 273.01277,291.03489 L 268.93723,290.48414 L 267.83573,289.05219 L 255.6091,288.83189 L 254.50761,287.73039 L 259.02374,284.4259 L 261.22673,283.1041 L 261.44704,281.45185 L 260.23539,280.01991 L 258.80344,278.25751 L 258.25269,276.82556 L 260.89629,274.18196 L 262.87898,271.97897 L 264.31094,269.88613 L 266.07333,268.12373 L 268.38648,266.91209 L 270.03872,267.35268 L 271.80112,268.78463 L 274.33457,269.11508 L 276.86801,267.68313 L 280.06236,266.14104 L 283.36685,265.36999 L 285.12925,264.37863 L 286.45104,261.40459 L 290.08599,260.964 L 293.50063,259.31175 L 295.92392,257.87979 L 299.11827,257.2189 L 304.73591,254.90575 L 308.70131,252.48245 L 315.31029,249.61857 L 319.27569,246.75467 L 321.69897,244.33137 L 318.72494,239.70508 L 315.86104,236.18028 L 312.887,232.43519 L 309.5825,226.7074 L 308.81145,222.63186 L 307.26935,219.98826 L 306.16786,217.78527 L 304.73591,213.81988 L 302.53292,210.84584 L 303.63441,208.86313 L 304.95621,206.77029 L 305.28666,204.89775 L 304.07501,200.93235 L 303.30397,199.39025 L 301.32126,198.61921 C 301.32126,198.61921 297.68632,198.72935 297.13558,198.72935 C 296.58483,198.72935 294.93258,198.06846 294.93258,198.06846 L 294.38183,195.75531 L 292.94988,194.43351 L 292.83973,191.67977 L 294.05137,188.81587 L 293.06003,187.27378 L 295.15288,183.74898 L 296.58483,180.77494 L 297.24572,179.343 L 302.75322,178.35164 L 307.26935,176.9197 L 309.91295,174.937 L 313.1073,172.07311 L 315.7509,168.98891 L 319.16553,167.33666 L 317.18284,165.35397 L 317.62343,164.25247 L 320.92793,160.61752 L 324.89332,157.42318 L 327.97752,155.55064 L 330.62111,154.00854 L 332.27335,152.68674 L 332.38351,151.25479 L 331.94291,149.60255 L 333.70531,148.1706 L 335.02711,147.2894 L 331.50232,142.6631 L 330.62111,141.12102 L 332.71396,138.14697 L 337.34025,133.30038 L 336.34891,130.98723 L 334.69665,128.67409 L 333.92561,126.80154 L 334.03576,125.58989 L 335.2474,125.25944 L 335.4677,120.85345 L 333.92561,118.9809 L 334.47636,116.117 L 336.7895,114.68506 L 339.76355,112.81251 L 342.84774,109.28772 L 345.49133,107.52533 L 349.23643,105.87307 L 353.20183,104.66143 L 354.74392,103.44978 L 356.17587,103.33963 L 357.82812,104.22082 L 360.80216,105.98322 L 364.32696,105.98322 L 366.64009,104.99187 L 368.29234,104.33098 L 368.29234,104.33098 L 368.42219,101.90919 L 366.88747,99.666134 L 366.41525,97.541134 L 366.17913,93.645294 L 364.76246,91.520291 L 363.58191,91.520291 L 362.51941,89.631401 L 361.45691,88.096681 L 362.2833,87.152231 L 362.51941,86.089731 L 361.81108,84.673061 L 361.10274,82.784181 L 359.68607,81.249461 L 357.56107,78.770291 L 356.38052,77.117501 L 354.37357,75.110561 L 352.60273,74.048061 L 350.94996,73.103611 L 349.7694,71.805001 L 347.88051,68.499441 L 346.22773,66.138331 L 344.92912,63.186941 L 345.16523,60.825828 L 347.17217,58.228604 L 348.82496,56.575825 L 349.29718,48.429988 L 352.01246,47.367487 L 352.9569,41.346649 L 354.0194,39.69387 L 354.0194,37.450813 L 351.54023,34.971645"
       id="path1325"
       sodipodi:nodetypes="ccccccccccccccccccccccccccccccccccccccccccccccccccccccccccccccccccccccccccccccccccccccccccccccccccccccccccccccccccccccccccccccccccccccccccccccccccccccccccccccccccccccccccccccccccccccccccccccccccccccccccccccccccccccccccccccccccccccccccccccccccccccccccccccccccccccccccccccccccccccccccccccccccccccccccccccccccccccccccccccccccccccccccccccccccccccccccccccccccccccsccccccccccccccccccccccccccccccccccccccccccccccccccccccccccccccccccccccccccccccccccc" />
    <path
       style="fill:none;fill-opacity:0.75;fill-rule:evenodd;stroke:#000000;stroke-width:2.00000048;stroke-linecap:butt;stroke-linejoin:round;stroke-miterlimit:4;stroke-dasharray:none;stroke-opacity:1"
       d="M 4.4750642,70.551351 L 9.9030011,68.302591 L 14.920582,65.997211 L 19.395722,63.963061 L 21.023046,60.84402 L 22.107929,57.589372 L 30.244551,57.453762 L 32.143091,59.759137 L 33.906021,62.878171 L 35.262131,64.369891 L 39.194831,61.928901 L 41.500201,60.84402 L 45.839731,59.759137 L 47.331451,58.267424 L 48.416331,57.182541 L 48.280721,54.605945 L 47.467061,52.978622 L 60.214431,52.164959 L 60.214431,48.503482 L 61.841741,48.367871 L 64.418351,49.181533 L 67.537381,50.537636 L 71.334471,52.164959 L 76.352051,52.029349 L 80.827191,52.436181 L 84.759886,54.199114 L 87.878926,52.571791 L 111.88195,52.571791 L 115.00099,55.690828 L 121.64589,58.131814 L 123.81566,59.623527 L 129.5113,59.894747 L 133.30839,61.386461 L 141.445,63.420611 L 146.73381,62.200121 L 148.36112,63.013781 L 158.12508,62.878171 L 163.41387,61.793291 L 175.21197,62.200121 L 177.51734,62.878171 L 176.70369,59.352306 L 178.60223,57.724982 L 178.05979,52.300569 L 176.56807,44.163952 L 177.24613,34.80684 L 178.87345,28.975596 L 179.68711,28.161935 L 185.51835,31.280972 L 193.65498,34.67123 L 200.16427,39.14637 L 207.35161,43.350289 L 212.64042,46.062496 L 217.11555,48.367871 L 218.87848,46.333716 L 220.91264,44.977613 L 222.81119,42.672237 L 224.43852,41.722966 L 224.57412,32.230244 L 225.38779,22.466302 L 225.93022,19.076044 L 226.74389,16.092617 L 225.11656,12.566748 L 224.96149,9.0408814 L 224.16729,5.9218434 L 225.52339,4.0232994 L 227.15072,4.4301304 L 227.72236,8.2272194 L 230.8122,10.261374 L 234.33806,11.888697 L 237.05027,14.872124 L 239.76248,16.363837 L 242.7459,14.872124 L 246.6786,14.872124 L 247.76349,16.499447 L 248.57715,18.262381 L 252.91668,18.262381 L 254.544,19.347264 L 257.66304,20.296536 L 261.46012,19.347264 L 267.02014,17.71994 L 271.35968,17.58433 L 271.08846,19.076044 L 272.98701,21.517029 L 275.29238,22.05947 L 275.42799,24.093625 L 277.19093,25.042897 L 281.25923,25.992169 L 282.75095,26.26339 L 283.42899,28.568765 L 286.14121,27.212662 L 288.7178,25.992169 L 290.75196,27.890714 L 292.24367,28.975596 L 293.19293,30.060479 L 297.39686,28.568765 L 300.24467,27.483883 L 301.60078,28.975596 L 302.82127,27.483883 L 304.44859,28.839986 L 305.39786,29.111206 L 306.75398,28.161935 L 308.24568,26.26339 L 310.82228,27.619493 L 315.16181,31.009751 L 314.61937,35.891722 L 320.72184,34.67123 L 326.55307,33.179517 L 333.19798,31.823412 L 338.62239,30.196089 L 342.96192,29.789258 L 345.67413,30.874141 L 349.47122,33.450737 L 352.04782,34.94245 L 354.48881,33.721957 L 354.62441,32.365854 L 353.26831,29.111206 L 352.04782,25.042897 L 351.09855,21.65264 L 350.01366,19.347264 L 349.2,17.855551 L 352.72586,12.97358 L 356.79418,7.9559994 L 357.32145,5.5767821"
       id="path2199"
       sodipodi:nodetypes="cccccccccccccccccccccccccccccccccccccccccccccccccccccccccccccccccccccccccccccccccccccccccccccccccccccccccccccccccccccccccc" />
    <path
       style="fill:none;fill-opacity:0.75;fill-rule:evenodd;stroke:#000000;stroke-width:1.60000026;stroke-linecap:butt;stroke-linejoin:round;stroke-miterlimit:4;stroke-dasharray:none;stroke-opacity:1"
       d="M 145.62665,62.335978 L 145.47088,56.614084 L 144.53621,54.277454 L 143.91312,52.252374 L 143.91312,50.538846 L 145.15932,50.538846 L 145.15932,49.604194 L 144.22467,45.865586 L 143.29002,40.257673 L 141.57649,34.33821 L 140.64184,28.107197 L 141.26494,21.564632 L 142.04381,17.514473 L 143.75734,14.243192 L 145.00354,13.152764 L 144.84777,3.7096534"
       id="path3074"
       sodipodi:nodetypes="cccccccccccccccc" />
    <path
       style="fill:none;fill-opacity:0.75;fill-rule:evenodd;stroke:#000000;stroke-width:1.60000026;stroke-linecap:butt;stroke-linejoin:round;stroke-miterlimit:4;stroke-dasharray:none;stroke-opacity:1"
       d="M 77.397051,51.720459 L 77.552821,43.684731 L 78.487471,40.725 L 78.175921,33.870885 L 77.397051,31.378479 L 78.487471,29.509175 L 78.175921,25.770567 L 77.397051,22.65506 L 75.995061,19.695328 L 75.371971,16.112496 L 74.125761,12.685438 L 73.035341,10.193033 L 72.879561,8.6352794 L 72.918877,7.7977838 L 74.737064,7.6063957 L 74.737064,5.4054322"
       id="path3949"
       sodipodi:nodetypes="cccccccccccccccc" />
    <path
       style="fill:none;fill-opacity:0.75;fill-rule:evenodd;stroke:#000000;stroke-width:1.60000026;stroke-linecap:butt;stroke-linejoin:round;stroke-miterlimit:4;stroke-dasharray:none;stroke-opacity:1"
       d="M 137.96912,218.66647 L 135.32552,217.12437 L 133.01237,215.47213 L 129.59773,212.93867 L 128.05563,209.63418 L 125.96278,206.10939 L 124.75114,201.15265 L 123.20904,193.99292 L 124.20039,185.40123 L 124.42069,172.40355 L 123.53948,170.86145 L 123.53948,168.43816 L 124.31053,167.33666 L 125.08158,158.30438 L 123.42934,156.87244 L 122.10754,154.44914 L 123.31919,151.6954 L 123.42934,134.18157 L 122.76844,132.96992 L 123.86994,131.64813 L 124.64098,119.09105 L 121.22634,120.85345 L 115.16811,126.47108 L 106.46626,134.18157 L 87.740796,148.39089 L 80.801371,155.22019 L 76.725831,158.19423 L 75.073581,159.40588 L 76.505521,160.94798 L 74.522831,162.15962 L 72.319831,164.47277 L 72.540131,167.99756 L 70.667581,171.52236 L 67.693541,176.36895 L 67.032641,177.58059 L 66.371741,180.33434 L 63.177401,183.41854 L 60.643951,185.40123 L 59.322151,186.17228 L 58.881561,187.93467 L 56.348121,189.58692 L 52.382721,190.57827 L 50.069571,193.66246 L 49.628971,194.32337 L 51.831971,196.74666 L 55.026311,202.03385 L 57.669901,204.89775 L 58.991701,207.32104 L 61.194701,208.09209 L 62.626651,209.96464 L 62.846941,215.03152 L 61.635301,218.88676 L 59.983051,221.31006 L 58.661261,222.41156 L 58.771401,224.50441 L 57.449611,225.49576 L 55.246611,226.81756 L 56.127811,228.35965 L 58.551111,231.33369 L 67.473251,231.22355 L 70.557441,232.98594 L 74.522831,235.18894 L 76.505521,237.28178 L 78.708521,238.05283 L 80.691211,238.27313"
       id="path6572" />
    <path
       style="fill:none;fill-opacity:0.75;fill-rule:evenodd;stroke:#000000;stroke-width:1.60000026;stroke-linecap:butt;stroke-linejoin:round;stroke-miterlimit:4;stroke-dasharray:none;stroke-opacity:1;display:inline"
       d="M 5.2922491,361.35647 L 8.8181181,362.44135 L 12.886427,363.39063 L 19.124502,364.74673 L 22.243539,363.66184 L 21.158656,360.54281 L 20.887436,358.77988 L 22.78598,356.33889 L 24.277693,353.35546 L 26.650605,353.04993 L 29.413191,352.80364 L 28.165775,350.19012 L 29.702111,345.21885 L 32.143091,342.0998 L 33.906021,338.70954 L 36.618231,334.09879 L 37.838721,329.08121 L 39.059221,327.04706"
       id="path12697"
       sodipodi:nodetypes="cccccccccccccccccc" />
    <path
       style="fill:none;fill-opacity:0.75;fill-rule:evenodd;stroke:#000000;stroke-width:1.60000026;stroke-linecap:butt;stroke-linejoin:round;stroke-miterlimit:4;stroke-dasharray:none;stroke-opacity:1;display:inline"
       d="M 48.999231,194.49141 L 47.765951,193.56645 L 47.457631,192.12762 L 46.224351,190.6888 L 45.299391,192.12762 L 43.141141,193.15536 L 36.974741,193.05258 L 35.535911,194.1831 L 34.302631,195.21082 L 32.555481,196.64965 L 31.116661,196.64965 L 31.116661,201.06891 L 25.258574,201.27446 L 24.025293,200.24672 L 21.455958,200.3495 L 14.467367,202.50774 L 10.664752,202.50774 L 8.8148311,204.66598 L 4.3969445,204.90882"
       id="path9197"
       sodipodi:nodetypes="cccccccccccccccccc" />
    <path
       style="fill:none;fill-opacity:0.75;fill-rule:evenodd;stroke:#000000;stroke-width:1.60000026;stroke-linecap:butt;stroke-linejoin:round;stroke-miterlimit:4;stroke-dasharray:none;stroke-opacity:1;display:inline"
       d="M 124.49371,119.15645 L 124.49371,111.29106 L 123.002,106.95152 L 122.32395,101.79833 L 122.05273,97.594414 L 120.56102,94.882214 L 119.61174,91.220731 L 118.66247,89.050961 L 117.44197,87.016811 L 116.76393,85.253881 L 114.86538,84.168991 L 109.30536,83.897781 L 107.2712,82.270451 L 107.54243,79.693851 L 111.47512,76.846041 L 115.00099,74.540661 L 118.66247,72.913341 L 121.37467,71.964061 L 122.32395,71.286011 L 121.10346,69.523081 L 119.47613,67.082091 L 117.98441,66.132821 L 117.44197,64.912331 L 120.28979,62.200121 L 122.73078,59.216695"
       id="path8322"
       sodipodi:nodetypes="ccccccccccccccccccccccccc" />
    <path
       style="fill:none;fill-opacity:0.75;fill-rule:evenodd;stroke:#000000;stroke-width:1.60000026;stroke-linecap:butt;stroke-linejoin:round;stroke-miterlimit:4;stroke-dasharray:none;stroke-opacity:1;display:inline"
       d="M 78.657421,156.04246 L 78.386211,154.00831 L 77.572551,152.78781 L 77.572551,148.7195 L 78.793041,146.54973 L 79.742311,144.24436 L 81.234016,142.88825 L 80.555971,140.85411 L 78.114991,139.63361 L 77.301321,138.81995 L 75.674001,137.73506 L 74.046671,135.83652 L 71.876911,133.12431 L 70.385201,131.09015 L 68.215441,129.46284 C 68.215441,129.46284 66.994941,128.24235 66.316891,127.97112 C 65.638831,127.6999 64.418351,126.20819 64.418351,126.20819 L 63.333461,123.6316 L 63.469071,116.71546 L 61.570531,114.81692 L 59.400771,112.51154 L 58.315881,110.74861 L 56.146121,108.30763 L 54.247571,107.22275 L 51.670981,106.40908 L 49.501211,107.35835 L 46.924611,108.71445 L 44.754851,107.9008 L 43.669971,106.68031 L 42.720691,104.51054 L 41.907031,103.15443 L 40.550931,104.23932 L 38.109941,105.3242 L 34.855301,105.18859 L 33.634801,103.42566 L 33.092361,101.79833 L 32.278701,100.98467 L 31.465041,102.47639 L 30.244551,103.69688 L 28.481614,103.42566 L 26.718679,104.37493 L 24.820135,103.56126 L 24.006473,101.79833 L 21.429877,95.695874 L 20.480605,92.305621 L 20.887436,88.508531 L 19.666943,86.338751 L 19.666943,83.626551 L 24.142083,84.033381 L 26.854289,85.118271 L 28.346002,84.575821 L 27.667951,80.100691 L 26.583069,77.388471 L 25.226966,76.846041 L 24.006473,75.489931 L 23.057201,73.862611 L 24.277693,73.184561 L 27.939172,71.150401 L 32.414311,69.116251 L 35.126521,67.488921 L 37.296281,66.946481 L 35.940181,65.454771 L 35.804571,64.505501"
       id="path7447" />
    <path
       style="fill:none;fill-opacity:0.75;fill-rule:evenodd;stroke:#000000;stroke-width:2;stroke-linecap:butt;stroke-linejoin:round;stroke-miterlimit:4;stroke-dasharray:none;stroke-opacity:1"
       d="M 450.01167,232.95177 L 446.27305,231.54979 L 439.73049,231.39402 L 439.26316,227.81119 L 437.70541,221.11285 L 434.12258,213.01253 L 433.18793,208.96236 L 434.27835,203.97755 L 435.05723,198.83697 L 434.27835,194.47526 L 433.3437,190.26933 L 432.25328,185.59607 L 431.16284,179.36505 L 431.63017,174.22446 L 432.7206,169.39543 L 432.87638,156.62185 L 431.94172,148.98886 L 430.38397,146.49645 L 429.6051,144.15983 L 426.33381,139.48656 L 425.71071,130.45159 L 427.42424,125.46678 L 428.82622,116.43182 L 429.91664,112.84899 L 428.67045,110.04502 L 428.40297,106.20825 L 429.01835,103.95188 C 429.01835,103.95188 430.04397,103.33651 430.45422,103.33651 L 432.4029,104.36213 L 434.0439,103.43907 L 436.19771,104.87494 L 443.68476,104.36213 L 443.5822,110.61844 L 442.24889,111.33637 L 441.22327,115.02862 L 439.99252,116.66961 L 439.58227,121.18236 L 438.86433,121.79773 L 439.37714,123.54129 L 441.83864,124.25923 L 444.30014,123.13104 L 446.0437,121.69517 L 448.09494,120.77211"
       id="path15329"
       sodipodi:nodetypes="cccccccccccccccccccccccccccs" />
    <path
       style="fill:none;fill-opacity:0.75;fill-rule:evenodd;stroke:#000000;stroke-width:1.60000002;stroke-linecap:butt;stroke-linejoin:round;stroke-miterlimit:4;stroke-dasharray:none;stroke-opacity:1;display:inline"
       d="M 398.80477,455.78319 L 402.14288,451.8268 L 403.21431,449.14823 C 403.21431,449.14823 401.60716,448.61252 401.60716,447.89823 C 401.60716,447.18395 403.57145,445.75537 403.57145,445.75537 L 406.60716,445.04109 L 411.25002,444.14823 L 413.39288,441.64823 L 418.21431,440.5768 L 420.53573,438.0768 L 421.07145,434.14823 L 421.96431,431.29109 L 425.17859,431.11252 L 426.07145,432.18395 L 427.50002,431.29109 L 429.64288,429.14823 L 430.89288,427.54109 L 431.96431,426.8268 L 433.03574,426.8268 L 434.46431,427.89823 L 435.71431,426.8268 L 437.50002,427.89823 L 438.21431,429.86252 L 439.46431,430.04109 L 441.42859,428.96966 L 441.78574,425.75537 L 443.21431,424.3268 L 443.39288,422.54109 L 445.35716,421.8268 L 447.14288,423.43395 L 448.75002,424.3268"
       id="path25833"
       sodipodi:nodetypes="cccsccccccccccccccccccccccccccc" />
    <path
       style="fill:none;fill-opacity:0.75;fill-rule:evenodd;stroke:#000000;stroke-width:2;stroke-linecap:round;stroke-linejoin:round;stroke-miterlimit:4;stroke-dasharray:none;stroke-opacity:1;display:inline"
       d="M 342.12717,400.38097 L 342.1883,406.82721 L 344.51451,409.69022 L 345.94601,411.83749 L 347.73541,413.09007 L 349.52479,414.70052 L 350.59843,416.4899 L 351.31419,418.63717 L 349.34586,419.7108 L 345.94601,421.85807 L 341.83043,423.46851 L 338.0727,425.79473 L 338.0727,428.83669 L 339.50422,431.16289 L 339.8621,437.24681 L 341.84657,438.55876 L 342.15748,440.57968 L 343.71204,441.35696 L 343.09021,443.68879 L 341.53566,444.15516 L 341.3802,445.55426 L 342.31294,447.41972 L 343.40112,448.97428 L 345.11113,446.48699 L 346.9766,444.62153 L 348.53115,443.53334 L 350.86299,445.55426 L 352.573,448.197 L 354.43846,450.21792 L 357.54757,448.66337 L 359.56849,450.68429 L 359.10213,451.77248 L 358.4803,453.32703 L 358.4803,455.96978"
       id="path23204"
       sodipodi:nodetypes="ccccccccccccccc" />
    <path
       style="fill:none;fill-opacity:0.75;fill-rule:evenodd;stroke:#000000;stroke-width:1.60000026;stroke-linecap:butt;stroke-linejoin:round;stroke-miterlimit:4;stroke-dasharray:none;stroke-opacity:1;display:inline"
       d="M 262.02368,351.89297 L 263.09731,354.04023 L 264.70776,357.0822 L 267.03397,359.94521 L 269.36018,363.16611 L 272.58107,366.38701 L 275.26517,368.53429 L 277.05455,369.96579 L 278.665,373.18669 L 280.27545,375.15502 L 280.99121,378.37592 L 280.09651,379.6285 L 281.34908,380.70213 L 281.70696,381.77576 L 281.70696,382.49151 L 281.34908,384.99666 L 279.5597,386.96499 L 277.41243,388.39649 L 276.3388,391.25952 L 274.37047,391.97527 L 272.76002,393.76467 L 273.47577,395.37512 L 274.5494,396.80662 L 275.4441,398.77495 L 276.69667,400.56434 L 275.62304,401.81691 L 274.72835,403.06948 L 273.1179,403.96418 L 273.1179,405.57463 L 274.19153,406.82721 L 275.80198,408.25871 L 277.41243,409.69022 L 279.5597,409.86916 L 279.5597,418.10035 L 280.45439,420.42655 L 281.70696,421.85807 L 281.70696,423.64746 L 283.67529,426.33154 L 285.28574,428.65774 L 286.53831,428.65774 L 288.3277,428.29987 L 289.04346,430.08926 L 290.11709,430.80501 L 292.08542,431.52077 L 294.05375,432.77334 L 295.30632,436.17318 L 296.51207,437.09476 L 297.32406,436.14743 L 298.27138,437.09476 L 300.30136,435.47077 L 302.46667,434.38812 L 304.22598,432.76414 L 305.9853,432.6288 L 307.74461,433.98212 L 309.09793,435.74144 L 311.5339,436.28276 L 312.88722,438.31274 L 315.18786,440.74871 L 315.86452,442.3727 L 318.16516,443.18469 L 319.24782,442.23737 L 319.65381,439.53073 L 323.71377,438.71874 L 331.02169,438.04208 L 332.51034,436.0121 L 334.13432,436.68876 L 336.29963,438.58341 L 337.92361,437.23009 L 339.41226,436.95942"
       id="path21454" />
    <path
       style="fill:none;fill-opacity:0.75;fill-rule:evenodd;stroke:#000000;stroke-width:1.60000026;stroke-linecap:butt;stroke-linejoin:round;stroke-miterlimit:4;stroke-dasharray:none;stroke-opacity:1;display:inline"
       d="M 270.98171,17.510284 L 271.99912,15.475475 L 270.10965,11.98723 L 269.09225,10.243107 L 268.65622,8.9350164 L 270.00001,7.7196394 L 271.78573,6.6482107 L 273.03573,5.3982107"
       id="path13579"
       sodipodi:nodetypes="ccccc" />
    <path
       style="fill:none;fill-opacity:0.75;fill-rule:evenodd;stroke:#000000;stroke-width:1.60000026;stroke-linecap:butt;stroke-linejoin:round;stroke-miterlimit:4;stroke-dasharray:none;stroke-opacity:1;display:inline"
       d="M 444.55952,421.59571 L 445.02685,417.70132 L 446.89615,415.9878 L 447.2077,412.09342 L 448.29814,409.75679 L 449.07701,407.57593 L 449.07701,405.70662 L 448.45391,404.30464 L 447.36349,401.65646 L 445.02685,400.25449 L 443.4691,397.6063 L 443.15755,396.3601 L 445.3384,394.95812 L 448.10056,392.88745"
       id="path17956"
       sodipodi:nodetypes="cccccccccccccc" />
    <path
       style="fill:none;fill-opacity:0.75;fill-rule:evenodd;stroke:#000000;stroke-width:1.60000002;stroke-linecap:butt;stroke-linejoin:round;stroke-miterlimit:4;stroke-dasharray:none;stroke-opacity:1"
       d="M 154.03787,458.90261 L 153.45769,454.26117 L 151.13697,450.48999 L 148.81625,446.42873 L 147.3658,443.52783 L 146.20544,440.04675 L 145.33517,438.5963 L 145.91535,436.27558 L 145.91535,434.53504 L 144.4649,430.76386 L 143.01445,427.86296 L 141.564,425.25215 L 140.11355,424.67197 L 134.89192,424.67197 L 133.44147,426.12242 L 131.99102,427.57287 L 130.25048,428.15305 L 128.80003,429.6035 L 126.7694,430.18368 L 125.31895,431.92422 L 124.73877,433.08458 L 123.57841,436.56567 L 121.83787,438.30621 L 119.80723,440.62693 L 118.93696,441.78729 L 116.61624,440.91702 L 114.8757,438.5963 L 114.29552,435.11522 L 112.26489,432.21431 L 110.52435,430.47377 L 109.36399,427.57287 L 108.49372,424.96206 L 107.04327,423.22152 L 105.88291,420.9008 L 105.01264,419.16026 L 103.85228,417.70981 L 102.11174,416.25936 L 100.0811,414.51881 L 98.920744,412.77827 L 97.605995,411.13535 L 95.080613,410.504 L 92.050156,410.12519 L 93.439115,408.10489 L 97.227188,404.82189 L 99.878838,401.5389 L 101.52034,397.49829 L 103.79318,394.46783 L 107.07618,390.30095 L 110.48544,387.01795 L 114.39978,384.49257 L 120.08189,379.31554 L 125.13265,376.28508 L 128.66819,372.62328"
       id="path1353" />
    <path
       style="fill:none;fill-opacity:0.75;fill-rule:evenodd;stroke:#000000;stroke-width:1px;stroke-linecap:butt;stroke-linejoin:miter;stroke-opacity:1;display:none"
       d="M 91.923886,409.99892 L 88.388352,412.90311 L 86.494316,415.42849 L 83.590128,418.08015 L 79.296979,420.22672 L 76.897867,421.23687 L 75.00383,419.72164 L 73.488602,419.0903 L 71.720835,418.33268 L 70.079337,419.72164 L 67.301417,420.98433 L 62.629461,422.7521 L 61.114232,422.62583 L 59.977811,420.60553 L 58.841389,418.20641 L 56.442276,419.21657 L 54.169433,420.98433 L 52.022859,423.63598 L 52.654204,425.27748 L 53.790626,426.0351 L 56.442276,426.79271 L 57.957505,430.58078 L 59.346465,433.23243 L 60.356618,436.76797 L 61.745578,440.80858 L 60.356618,442.07127 L 56.821084,443.20769 L 52.022859,444.21784 L 50.128823,446.11188 L 46.214481,446.86949 L 44.572983,447.2483"
       id="path1355" />
    <path
       style="fill:none;fill-opacity:0.75;fill-rule:evenodd;stroke:#000000;stroke-width:1.60000002;stroke-linecap:butt;stroke-linejoin:round;stroke-miterlimit:4;stroke-dasharray:none;stroke-opacity:1"
       d="M 92.302693,409.74638 L 89.524774,411.89296 L 87.630738,414.03953 L 86.368047,415.68103 L 84.474011,417.57507 L 80.685939,419.0903 L 78.160557,420.47926 L 76.897867,421.1106 L 75.00383,419.72164 L 73.109794,418.45895 L 71.720835,419.0903 L 68.564108,420.47926 L 64.649766,421.48941 L 63.134537,422.87837 C 63.134537,422.87837 62.250654,423.63598 61.745578,423.38345 C 61.240501,423.13091 60.356618,421.61568 60.356618,421.61568 L 60.10408,419.21657 L 58.841389,418.08015 L 56.568546,419.21657 L 54.927048,420.22672 L 52.906742,422.37329 L 52.275397,423.50972 L 53.411819,425.65629 L 55.9372,426.91898 L 57.831236,429.6969 L 59.220196,433.73751 L 61.114232,439.04081 L 60.482887,442.45008 L 56.694815,443.20769 L 51.265244,444.84919 L 48.866132,446.61696 L 38.890875,448.63726 L 37.754453,448.76353 L 32.324883,450.15249 L 27.27412,451.28891 L 22.349626,452.80414 L 18.435285,453.81429 L 16.667518,455.32952"
       id="path1358"
       sodipodi:nodetypes="ccccccccccccccsccccccccccccccccccccccc" />
    <path
       style="fill:none;fill-opacity:0.75;fill-rule:evenodd;stroke:#000000;stroke-width:1.60000002;stroke-linecap:butt;stroke-linejoin:round;stroke-miterlimit:4;stroke-dasharray:none;stroke-opacity:1"
       d="M 71.720835,419.21657 L 71.720835,417.19626 L 71.720835,414.67088 L 72.857256,412.27177 L 72.730987,410.88281 L 71.342027,408.98877 L 69.826798,407.47354 L 67.806493,406.71593 L 66.670072,405.57951 L 65.154843,404.69562 L 64.14469,402.92786 L 63.134537,400.78128 L 61.619309,399.51859 L 59.977811,399.77113 L 58.841389,401.03382 L 57.957505,400.27621 L 56.694815,399.01351 L 59.220196,396.36186 L 59.725272,394.72037 L 60.987963,392.06872 L 62.881999,389.92214 L 64.523497,388.28064 L 63.260806,387.77557 L 61.240501,387.39676 L 62.250654,385.37645 L 63.765883,382.97734 L 64.649766,380.19942 L 66.164995,376.79016 L 65.028574,374.13851 C 65.028574,374.13851 62.881999,372.87582 62.629461,372.24447 C 62.376923,371.61313 60.987963,369.84536 60.987963,369.84536 L 58.967658,369.59282 L 58.967658,372.49701 L 58.588851,375.90627 L 55.810931,375.52747 L 53.790626,374.51731 C 53.790626,374.51731 53.923897,373.86761 54.06337,373.03414 C 54.307884,371.57296 54.571458,369.54696 54.169433,369.46655 C 53.538088,369.34028 53.033011,367.31998 53.033011,367.31998 L 56.063469,364.7946 L 61.998116,359.61756 L 67.680224,356.08203 L 69.447991,354.06172 L 71.342027,353.05157 L 73.867409,352.04142 L 75.256369,348.88469 L 76.771597,346.99066 L 77.024136,343.83393 L 76.140252,337.39421 L 73.993678,335.87898 L 72.35218,333.60613 L 71.594565,332.34344"
       id="path1360"
       sodipodi:nodetypes="cccccccccccccccccccccccccccccsccccccsscccccccccccccc" />
    <path
       style="fill:none;fill-opacity:0.75;fill-rule:evenodd;stroke:#000000;stroke-width:1.60000002;stroke-linecap:butt;stroke-linejoin:round;stroke-miterlimit:4;stroke-dasharray:none;stroke-opacity:1"
       d="M 170.44514,454.94703 L 171.77805,452.78106 L 174.77708,451.11493 L 180.60854,449.94864 L 182.94112,448.44912 L 184.27403,446.28315 L 185.60693,442.28444 L 185.17854,439.59989 L 187.7729,436.6196 L 191.10516,434.78685 L 193.93758,431.78782 L 196.43678,428.62217 L 197.43646,426.78943"
       id="path3981"
       sodipodi:nodetypes="ccccccccccccc" />
    <path
       style="fill:none;fill-opacity:0.75;fill-rule:evenodd;stroke:#000000;stroke-width:1.60000002;stroke-linecap:butt;stroke-linejoin:round;stroke-miterlimit:4;stroke-dasharray:none;stroke-opacity:1"
       d="M 447.35602,12.589402 L 447.02279,22.086345 L 445.68989,25.751832 L 443.35731,26.251671 L 442.19102,33.582645 L 438.35892,48.744432 L 435.85972,57.075084 L 434.19359,62.573315 L 432.86069,67.405093 L 434.52682,69.237837 L 434.3602,73.403163 L 436.69279,76.735423 L 439.19198,79.068006 L 440.35827,82.900106 L 443.19069,87.065432 L 440.85811,88.231723 L 435.52649,88.56495 L 435.35988,102.39383 L 433.69375,104.5598"
       id="path4856"
       sodipodi:nodetypes="ccccccccccccccccccc" />
    <path
       style="fill:none;fill-opacity:0.75;fill-rule:evenodd;stroke:#000000;stroke-width:2;stroke-linecap:round;stroke-linejoin:round;stroke-miterlimit:4;stroke-dasharray:none;stroke-opacity:1"
       d="M 448.09494,249.38531 L 445.2232,249.69299 L 442.55658,251.43655 L 440.19764,253.38524 L 437.42846,255.1288 L 434.96696,256.15442 L 433.94134,262.2056 L 433.01828,265.38503 L 429.83884,266.00041 L 428.6081,264.56454 L 427.27479,264.87222 L 426.9671,267.12859 L 422.96717,267.84653 L 420.60823,266.61578 L 418.2493,267.84653 L 417.01855,268.97472 L 418.14674,270.20547 L 417.53136,271.12853 L 414.9673,272.87209 L 412.60837,273.59002 L 411.68531,270.82084 L 409.12125,266.41066 L 405.94182,265.89785 L 401.32651,267.23116 L 397.83939,269.59009 L 393.22408,272.66696 L 389.22415,273.59002 L 388.40365,275.64127 L 385.83959,279.33352 L 383.27553,284.5642 L 380.50635,289.69231 L 379.07048,291.94869 L 378.24998,291.641 L 375.78848,290 L 372.40392,286.51288 L 366.86556,281.07708 L 364.50662,278.92327 L 362.55794,276.97458 L 360.53573,277.00537 L 359.28573,278.61251 L 356.07145,281.46965 L 352.14288,284.32679 L 350.89288,285.75537 L 349.10716,286.46965 L 347.85716,287.54108 L 347.67859,289.68394 L 346.42859,290.21965 L 345.53573,291.8268 L 344.28573,295.04108 L 341.42859,297.00537 L 338.2143,299.14822 L 336.78573,300.21965 L 336.25002,301.46965 L 337.50002,303.25537 L 339.4643,303.96965 L 345.7143,303.25537 L 347.50002,302.89822 L 349.10716,304.68394 L 352.14288,306.64822 L 352.50002,308.79108 L 350.89288,313.0768 L 350.17859,315.21965 L 348.57145,316.46965 L 344.28573,316.46965 L 342.85716,318.79108 L 341.9643,320.93394 L 341.25002,322.18394 L 340.35716,330.39823 L 339.10716,336.46965 L 338.03573,344.3268 L 337.85716,350.39823 L 336.07145,352.18394 L 336.42859,359.14823 L 334.4643,361.11251 L 333.03573,363.43394 L 332.67859,364.68394 L 335.00002,366.11251 L 334.64288,369.3268 L 334.28573,370.93394 L 335.35716,372.36251 L 335.17859,379.86251 L 336.60716,381.46966 L 341.07145,382.18394 L 343.92859,380.93394 L 347.67859,381.11251 L 347.32145,385.21966 L 345.35716,387.18394 L 343.57145,387.89823 L 343.2143,392.54109 L 346.42859,395.04109 L 347.85716,397.36252 L 347.67859,403.0768 L 345.17859,401.64823 L 342.14658,400.39823"
       id="path10971"
       sodipodi:nodetypes="cccccccccccccccccccccccccccccccccccccccccccccccccccccccccccccccccccccccccccccccccccccccccccccc" />
    <path
       style="fill:none;fill-opacity:0.75;fill-rule:evenodd;stroke:#000000;stroke-width:1.60000002;stroke-linecap:butt;stroke-linejoin:round;stroke-miterlimit:4;stroke-dasharray:none;stroke-opacity:1"
       d="M 295.56475,436.82409 L 292.45211,437.09476 L 292.31678,440.47805 L 293.80543,441.42537 L 292.45211,442.91402 L 290.82813,443.86135 L 289.20415,443.86135 L 288.93349,442.91402 L 287.7155,441.01938 L 286.63284,440.74871 L 284.87353,442.10203 L 283.24955,444.13201 L 281.08424,448.19197 L 277.97161,452.11659 L 274.31765,455.22922"
       id="path14465" />
    <path
       style="fill:none;fill-opacity:0.75;fill-rule:evenodd;stroke:#000000;stroke-width:1.60000002;stroke-linecap:butt;stroke-linejoin:round;stroke-miterlimit:4;stroke-dasharray:none;stroke-opacity:1"
       d="M 341.78573,400.04109 L 339.4643,398.96966 L 336.9643,396.29109 L 335.00002,394.86251 L 332.85716,393.25537 L 329.64287,389.86251 L 327.14287,388.43394 L 324.28573,387.36251 L 321.78573,386.46966 L 318.2143,384.14823 L 315.00002,381.29109 L 313.2143,378.96966 L 311.42859,377.54109 L 309.10716,375.5768 L 305.00002,371.46966 L 302.32144,368.43394 L 300.89287,365.5768 L 299.4643,362.36251 L 298.75002,360.39823 L 296.78573,359.50537 L 294.28573,358.79108 L 292.67859,357.54108 L 292.67859,355.5768 L 296.42859,353.96966 L 296.07144,352.00537 L 294.4643,350.5768 L 293.39287,348.0768 L 292.50002,345.39823 L 293.57144,343.79108 L 292.32144,337.89823 L 292.50002,332.36251 L 293.57144,330.75537 L 293.57144,328.25537"
       id="path17088" />
    <path
       style="fill:none;fill-opacity:0.75;fill-rule:evenodd;stroke:#000000;stroke-width:1.60000002;stroke-linecap:butt;stroke-linejoin:round;stroke-miterlimit:4;stroke-dasharray:none;stroke-opacity:1;display:inline"
       d="M 337.85716,350.5768 L 341.25002,351.29108 L 341.78573,353.0768 L 342.67859,355.5768 L 345.89288,354.3268 L 358.57145,354.14823 L 361.96431,352.89823 L 365.00002,352.89823 L 365.53573,350.75537 L 369.82145,350.21966 L 387.32145,349.50537 L 389.64288,347.89823 L 392.32145,345.93394 L 395.00002,343.96966 L 397.32145,344.50537 L 401.07145,345.75537 L 403.39288,347.00537 L 404.28574,344.3268 L 405.53574,342.18394 L 406.07145,336.11251 L 408.57145,335.93394 L 410.53574,338.43394 L 413.92859,339.50537 L 415.53574,341.11251 L 418.92859,341.46965 L 420.53574,342.89823 L 421.96431,344.86251 L 422.50002,347.18394 L 432.85717,346.8268 L 437.32145,345.04108 L 442.32145,345.21966 L 445.35717,347.71966 L 447.32145,348.79108 L 449.10717,348.79108"
       id="path16213"
       sodipodi:nodetypes="cccccccccccccccccccccccccccccccccc" />
    <path
       style="fill:none;fill-opacity:0.75;fill-rule:evenodd;stroke:#000000;stroke-width:1.60000002;stroke-linecap:butt;stroke-linejoin:round;stroke-miterlimit:4;stroke-dasharray:none;stroke-opacity:1"
       d="M 359.71756,277.17091 L 356.3853,277.0043 L 354.88578,276.00462 L 353.21965,274.17188 L 351.38691,272.67236 L 353.55288,270.67301 L 357.21836,268.67365 L 359.88417,268.0072 L 362.88321,266.17445 L 361.71692,264.50832 L 360.71724,261.6759 L 360.38401,260.00977 L 359.05111,258.84348 L 357.38498,258.34364 L 355.88546,256.5109 L 354.71917,255.51122 L 356.3853,254.0117 L 358.05143,251.51251 L 359.05111,248.01363 L 360.55063,245.34782 L 361.5503,243.01524 L 360.88385,240.68266 L 360.55063,236.18411 L 359.88417,233.35168 L 359.55095,231.35233 L 358.21804,229.85281 L 352.88643,229.85281 L 350.22062,231.0191 L 345.22223,231.18571 L 342.55642,232.35201 L 340.22383,233.35168 L 337.2248,234.51798 L 333.55931,236.51733 L 330.72689,237.85024 L 328.22769,240.18282 L 325.89511,241.68234 L 323.89576,243.51508 L 321.72979,243.84831"
       id="path18837"
       sodipodi:nodetypes="cccccccccccccccccccccccccccccccccccccc" />
    <path
       style="fill:none;fill-opacity:0.75;fill-rule:evenodd;stroke:#000000;stroke-width:1.60000002;stroke-linecap:butt;stroke-linejoin:round;stroke-miterlimit:4;stroke-dasharray:none;stroke-opacity:1;display:inline"
       d="M 368.88128,104.39319 L 372.04693,102.89367 L 380.54419,103.39351 L 383.04339,104.39319 L 386.04242,103.2269 L 391.04081,103.2269 L 392.70694,102.06061 L 395.53936,101.22754 L 397.87195,102.39383 L 399.8713,105.89271 L 404.20324,109.55819 L 405.03631,111.22432 L 407.70212,111.39094 L 409.70147,109.55819 L 413.20035,108.05868 L 414.69986,106.22593 L 415.69954,105.72609 L 416.86583,106.89238 L 418.36535,105.72609 L 419.53164,106.89238 L 424.19681,106.89238 L 424.69665,105.55948 L 427.86229,105.39287"
       id="path19712" />
    <path
       style="fill:none;fill-opacity:0.75;fill-rule:evenodd;stroke:#000000;stroke-width:0.69999999;stroke-linecap:butt;stroke-linejoin:round;stroke-miterlimit:4;stroke-dasharray:none;stroke-opacity:1"
       d="M 118.14615,337.97908 L 119.07889,335.8027 L 118.76798,332.69359 L 118.14615,330.51721 L 119.07889,327.71902 L 119.3898,315.28258 L 120.01162,313.1062 L 122.49891,312.17347 L 125.29711,311.24074 L 129.64986,313.1062 L 132.44806,314.34985 L 134.31352,312.79529 L 135.86808,311.24074 L 136.80081,307.82072 L 136.80081,301.91341 L 137.11172,294.76246 L 137.42263,293.2079 L 141.15356,294.45155 L 143.64085,296.62792 L 146.12814,302.22432 L 148.92634,307.50981 L 151.10271,313.72802 L 152.65727,316.52622 L 152.96818,318.39169 L 152.03545,319.32442 L 147.68269,319.32442 L 147.06087,320.87898 L 146.12814,322.43353 L 146.12814,324.60991 L 148.30451,327.09719 L 149.23725,329.27357 L 147.37178,330.82813 L 144.57358,333.31541 L 143.32994,336.73543 L 142.70812,341.08819 L 139.90992,343.88638 L 131.82624,351.03734"
       id="path42050" />
    <path
       style="fill:none;fill-opacity:0.75;fill-rule:evenodd;stroke:#000000;stroke-width:0.69999999;stroke-linecap:butt;stroke-linejoin:round;stroke-miterlimit:4;stroke-dasharray:none;stroke-opacity:1"
       d="M 149.23725,328.96266 L 152.34636,328.8072 L 154.05637,329.73994 L 157.94275,329.11812 L 159.49731,327.71902 L 160.27459,325.69809 L 161.9846,326.78628 L 163.38369,327.71902 L 164.78279,326.63083 L 163.38369,324.76536 L 165.0937,322.27807 L 168.51373,319.32442 L 170.6901,317.92532 L 171.62283,316.21531 L 172.55557,312.32892 L 172.86648,309.53073 L 172.86648,306.26616 L 172.40011,304.86706 L 171.00101,301.44704 L 170.22374,298.33793 L 170.84556,294.607 L 171.31192,292.27517 L 170.37919,290.56516 L 167.58099,290.09879 L 166.33735,288.69969 L 164.93825,285.9015 L 164.31643,283.88057 L 162.91733,281.7042 L 161.05186,280.14964 L 159.34185,277.04053 L 159.96367,272.84324 L 160.5855,272.37687 L 160.5855,269.57867 L 158.87549,266.15865 L 157.94275,264.13773 L 156.69911,260.56225 L 152.34636,259.31861 L 150.01452,258.54133 L 148.45997,256.83132 L 146.43905,254.8104 L 146.28359,252.47857 L 147.21633,251.54584 L 146.43905,247.19308 L 145.81723,243.92852 L 144.26267,241.9076 L 142.70812,240.66395 L 139.44355,240.66395 L 138.04445,239.42031 L 137.42263,237.39939 L 136.64535,235.37847"
       id="path42925" />
    <path
       style="fill:none;fill-opacity:0.75;fill-rule:evenodd;stroke:#000000;stroke-width:0.69999999;stroke-linecap:butt;stroke-linejoin:round;stroke-miterlimit:4;stroke-dasharray:none;stroke-opacity:1;display:inline"
       d="M 155.92183,374.97748 L 157.7873,374.04474 L 158.56458,373.11201 L 157.47639,371.55746 L 158.25366,369.53654 L 158.40912,367.98198 L 160.5855,368.13744 L 161.05186,369.07017 L 162.76187,368.13744 L 164.47188,366.58288 L 163.38369,365.02833 L 163.22824,363.94014 L 166.64826,360.67557 L 170.37919,358.34374 L 173.02193,355.85646 L 174.57649,353.99099 L 176.2865,351.97007 L 178.77379,351.03734 L 180.32834,351.03734 L 181.41653,351.65916 L 182.66017,351.19279 L 181.72744,349.94915 L 182.50472,347.46186 L 183.59291,344.97457 L 185.76928,343.26456 L 188.56748,342.02092 L 190.27749,341.71001 L 190.27749,340 L 189.34476,337.97908 L 188.87839,335.8027 L 187.32384,332.53814 L 187.01293,330.36176 L 185.45837,328.8072 L 182.97108,327.25265 L 180.95016,325.85355 L 177.53014,323.67717 L 175.04285,321.18989 L 173.02193,318.85805 L 171.15647,317.14804"
       id="path43801" />
    <path
       style="fill:none;fill-opacity:0.75;fill-rule:evenodd;stroke:#000000;stroke-width:0.69999999;stroke-linecap:butt;stroke-linejoin:round;stroke-miterlimit:4;stroke-dasharray:none;stroke-opacity:1"
       d="M 190.43295,341.55455 L 190.74386,345.13003 L 194.00842,346.99549 L 198.67209,349.48278 L 202.55847,351.19279 L 206.44486,351.97007 L 209.24306,352.12552 L 214.684,352.74735 L 219.81403,355.39009 L 223.54496,357.72192 L 227.43135,358.4992 L 230.07409,359.43193 L 233.96048,360.36466 L 236.91413,360.36466"
       id="path44677" />
    <path
       style="fill:none;fill-opacity:0.75;fill-rule:evenodd;stroke:#000000;stroke-width:0.69999999;stroke-linecap:butt;stroke-linejoin:round;stroke-miterlimit:4;stroke-dasharray:none;stroke-opacity:1"
       d="M 240.33415,333.93723 L 238.46868,331.44995 L 236.29231,329.42903 L 233.96048,328.02993 L 230.385,328.18538 L 228.9859,328.18538 L 227.89771,325.23173 L 226.96498,322.74444 L 226.03225,319.79079 L 226.03225,316.68168 L 228.20862,315.28258 L 231.16228,315.28258 L 232.25047,313.26166 L 233.1832,309.99709 L 235.04866,306.57707 L 237.3805,303.46796 L 240.1787,301.29159 L 243.13235,303.15705 L 244.53145,304.4007 L 246.24146,307.66526 L 248.41783,311.24074 L 249.66148,313.88348 L 250.59421,316.05986 L 248.41783,316.52622 L 242.04416,317.3035 L 242.19962,319.16897 L 243.59872,321.65625 L 245.30873,323.83263 L 247.17419,324.60991 L 248.26238,326.31992 L 249.35057,328.18538 L 248.41783,329.11812 L 247.01874,329.89539 L 244.99781,329.89539 L 243.59872,330.2063 L 242.35507,330.82813 L 242.04416,332.53814"
       id="path45552" />
    <path
       style="fill:none;fill-opacity:0.75;fill-rule:evenodd;stroke:#000000;stroke-width:0.69999999;stroke-linecap:butt;stroke-linejoin:round;stroke-miterlimit:4;stroke-dasharray:none;stroke-opacity:1"
       d="M 240.33415,300.98068 L 241.11143,299.73703 L 243.13235,298.49339 L 245.15327,298.02702 L 248.8842,298.49339 L 253.54787,298.64884 L 257.12334,296.93883 L 261.94246,294.607 L 267.69431,293.05245 L 271.42524,291.03153"
       id="path45554" />
    <path
       style="fill:none;fill-opacity:0.75;fill-rule:evenodd;stroke:#000000;stroke-width:0.69999999;stroke-linecap:butt;stroke-linejoin:round;stroke-miterlimit:4;stroke-dasharray:none;stroke-opacity:1"
       d="M 156.69911,260.25134 L 159.03094,257.76406 L 162.29551,255.43222 L 172.0892,254.8104 L 176.44195,254.03312 L 179.24015,251.23493 L 182.03835,249.05855 L 186.54656,246.26035 L 189.81112,243.61761 L 194.16388,242.06305 L 198.82754,240.66395 L 204.11303,238.95394 L 208.77669,238.48758 L 210.95307,233.513 L 212.35217,229.00479 L 213.44035,226.51751 L 212.50762,224.96295 L 213.2849,220.76566 L 213.59581,212.37106 L 214.21763,202.88828 L 215.15037,196.67006 L 215.61673,190.14093 L 217.4822,186.56545 L 220.2804,182.05724 L 225.72134,177.54904 L 228.20862,174.59538 L 229.91863,172.57446"
       id="path47302" />
    <path
       style="fill:none;fill-opacity:0.75;fill-rule:evenodd;stroke:#000000;stroke-width:0.69999999;stroke-linecap:butt;stroke-linejoin:round;stroke-miterlimit:4;stroke-dasharray:none;stroke-opacity:1"
       d="M 193.69751,241.9076 L 192.92023,239.88668 L 191.36568,238.48758 L 191.36568,237.24393 L 190.27749,236.00029 L 187.16838,236.62211 L 186.08019,237.55485 L 183.74836,236.93302 L 181.26107,233.04664 L 176.2865,223.71931 L 172.24466,215.48017 L 169.13555,210.50559 L 167.8919,207.86285"
       id="path48177" />
    <path
       style="fill:none;fill-opacity:0.75;fill-rule:evenodd;stroke:#000000;stroke-width:0.69999999;stroke-linecap:butt;stroke-linejoin:round;stroke-miterlimit:4;stroke-dasharray:none;stroke-opacity:1;display:inline"
       d="M 255.12037,298.03787 L 251.67539,296.124 L 247.84763,294.59289 L 244.21125,293.25318 L 241.34043,292.8704 L 238.46961,290.95652 L 236.55573,287.32014 L 234.83323,282.72683 L 233.49352,277.75074 L 232.91935,275.83686 L 232.34519,273.92297 L 231.96241,272.20048 L 233.6849,269.32966 L 234.45046,267.41578 L 235.4074,263.01385 L 236.36434,258.03776 L 240.00071,252.29612 L 243.06292,246.74586 L 246.50791,243.10949 L 249.37873,240.04728 L 251.67539,238.32478 L 253.78066,239.09033 L 263.73284,239.28172 L 266.41227,242.34393 L 268.70893,245.40614 L 269.85726,246.36308 L 270.8142,243.30087 L 271.96253,240.23866 L 272.72808,239.28172 L 275.02474,239.47311 L 280.95777,241.1956 L 282.87165,243.30087 L 283.63721,245.98031 L 288.42191,247.89419 L 293.97217,249.80807 L 303.73296,250.57362 L 308.51766,251.91334 L 310.81432,252.29612"
       id="path49052"
       sodipodi:nodetypes="cccccccccccccccccccccccccccccccccccccc" />
    <path
       style="fill:none;fill-opacity:0.75;fill-rule:evenodd;stroke:#000000;stroke-width:0.69999999;stroke-linecap:butt;stroke-linejoin:round;stroke-miterlimit:4;stroke-dasharray:none;stroke-opacity:1;display:inline"
       d="M 251.67539,237.94201 L 250.90984,236.02812 L 249.76151,233.92286 L 249.9529,222.82234 L 251.484,219.56875 L 252.82372,217.65486 L 253.58927,212.296 L 253.01511,209.42517 L 252.24955,205.40602 L 252.24955,200.81271 L 250.90984,197.17633 L 249.76151,193.34857 L 248.03901,187.22415 L 246.31652,183.205 L 245.35958,179.9514 L 244.59403,176.31503 L 246.31652,174.20976 L 251.484,171.14755 L 256.65148,168.08534 L 263.54145,165.40591 L 268.13477,160.23843 L 273.11086,155.8365 L 276.93862,150.66902 L 282.48888,141.67378 L 287.65636,134.40103 L 292.05828,126.93689 L 294.92911,121.19525 L 296.46021,112.58278 L 298.75687,104.54448 L 302.01047,95.166462 L 306.60378,81.195129 L 310.62293,68.563512 L 315.9818,53.061074 L 320.7665,37.941412 L 321.72344,34.113649"
       id="path49054" />
    <path
       style="fill:none;fill-opacity:0.75;fill-rule:evenodd;stroke:#000000;stroke-width:0.69999999;stroke-linecap:butt;stroke-linejoin:round;stroke-miterlimit:4;stroke-dasharray:none;stroke-opacity:1;display:inline"
       d="M 296.26882,178.61169 L 295.50327,176.12364 L 293.58939,172.87004 L 291.48412,169.61644 L 289.57024,166.74562 L 287.27358,164.83174 L 285.16831,163.10925 L 282.29749,161.76953 L 280.00083,160.6212 L 278.66112,157.17622 L 277.70417,154.68817 L 276.55585,152.00874"
       id="path50802"
       sodipodi:nodetypes="cccccccccccc" />
    <path
       style="fill:none;fill-opacity:0.75;fill-rule:evenodd;stroke:#000000;stroke-width:0.69999999;stroke-linecap:butt;stroke-linejoin:round;stroke-miterlimit:4;stroke-dasharray:none;stroke-opacity:1"
       d="M 294.96456,120.84274 L 296.98486,120.71647 L 297.48994,122.73678 L 297.2374,129.42904 L 303.42459,129.42904 L 307.71774,128.04008 L 310.24312,126.39858 L 310.74819,124.12574 L 310.87446,121.72663 L 311.127,117.18094 L 312.64223,116.17079 L 316.93538,114.52929 L 323.3751,113.77167 L 330.06736,113.77167 L 334.10797,112.25645 L 339.285,109.85733 L 342.94681,107.83703 L 345.47219,107.33195"
       id="path51680" />
    <path
       style="fill:none;fill-opacity:0.75;fill-rule:evenodd;stroke:#000000;stroke-width:0.69999999;stroke-linecap:butt;stroke-linejoin:round;stroke-miterlimit:4;stroke-dasharray:none;stroke-opacity:1"
       d="M 299.63651,102.15492 L 305.31862,101.64984 L 311.25327,99.755808 L 314.66253,98.493117 L 318.70314,99.377 L 324.51152,100.26088 L 328.93094,99.124462 L 331.70967,97.588422 L 333.22409,97.482964 L 336.75962,98.745655 L 343.70442,96.977888 L 349.13399,94.831314 L 354.8161,92.937278 L 361.25582,91.043241 L 363.02359,90.664434"
       id="path51682"
       sodipodi:nodetypes="ccccccccccccccc" />
  </g>
  <g
     inkscape:groupmode="layer"
     id="layer2"
     inkscape:label="Kader"
     style="display:inline"
     sodipodi:insensitive="true">
    <rect
       style="opacity:1;fill:none;fill-opacity:0.10980392;fill-rule:nonzero;stroke:#000000;stroke-width:4;stroke-linecap:round;stroke-linejoin:miter;stroke-miterlimit:4;stroke-dasharray:none;stroke-dashoffset:0;stroke-opacity:1;display:inline"
       id="rect33520"
       width="444.87323"
       height="452.31888"
       x="4.2750001"
       y="4.4106402" />
    <rect
       style="opacity:1;fill:#ffffff;fill-opacity:1;fill-rule:nonzero;stroke:none;stroke-width:1.60000002;stroke-linecap:round;stroke-linejoin:round;stroke-miterlimit:4;stroke-dasharray:none;stroke-dashoffset:0;stroke-opacity:0.15432099;display:inline"
       id="rect10621"
       width="109.248"
       height="16.970562"
       x="10.625"
       y="433.41895" />
  </g>
  <g
     inkscape:groupmode="layer"
     id="layer3"
     inkscape:label="Legende"
     style="display:inline"
     sodipodi:insensitive="true">
    <path
       style="fill:#000000;fill-opacity:1;fill-rule:evenodd;stroke:none;stroke-width:1px;stroke-linecap:butt;stroke-linejoin:miter;stroke-opacity:1;display:inline"
       d="M 21.719598,445.8864 L 21.738398,440.93395 L 90.750715,440.92145 L 90.748525,445.92005 L 21.719598,445.8864 z "
       id="path7014"
       sodipodi:nodetypes="ccccc" />
    <path
       style="fill:#ffffff;fill-opacity:1;fill-rule:evenodd;stroke:none;stroke-width:1px;stroke-linecap:butt;stroke-linejoin:miter;stroke-opacity:1;display:inline"
       d="M 35.641385,445.0063 L 35.641385,441.82549 L 49.369065,441.83666 L 49.391385,445.0063 L 35.641385,445.0063 z "
       id="path7890" />
    <path
       style="fill:#ffffff;fill-opacity:1;fill-rule:evenodd;stroke:none;stroke-width:1px;stroke-linecap:butt;stroke-linejoin:miter;stroke-opacity:1;display:inline"
       d="M 62.907005,441.81433 L 62.907005,445.01746 L 76.645845,445.0063 L 76.634685,441.82549 L 62.907005,441.81433 z "
       id="path8765" />
    <text
       xml:space="preserve"
       style="font-size:12px;font-style:normal;font-weight:normal;fill:#000000;fill-opacity:1;stroke:none;stroke-width:1px;stroke-linecap:butt;stroke-linejoin:miter;stroke-opacity:1;display:inline;font-family:Bitstream Vera Sans"
       x="13.226355"
       y="445.73877"
       id="text10513"><tspan
         sodipodi:role="line"
         id="tspan10515"
         x="13.226355"
         y="445.73877">0</tspan></text>
    <text
       xml:space="preserve"
       style="font-size:12px;font-style:normal;font-weight:normal;fill:#000000;fill-opacity:1;stroke:none;stroke-width:1px;stroke-linecap:butt;stroke-linejoin:miter;stroke-opacity:1;display:inline;font-family:Bitstream Vera Sans"
       x="91.378822"
       y="445.92047"
       id="text10517"><tspan
         sodipodi:role="line"
         id="tspan10519"
         x="91.378822"
         y="445.92047">4km</tspan></text>
  </g>
  <g
     inkscape:groupmode="layer"
     id="layer7"
     inkscape:label="Opschrift">
    <text
       xml:space="preserve"
       style="font-size:31.24287033px;font-style:normal;font-weight:normal;fill:#000000;fill-opacity:1;stroke:none;stroke-width:1px;stroke-linecap:butt;stroke-linejoin:miter;stroke-opacity:1;display:inline;font-family:Bitstream Vera Sans"
       x="229.32129"
       y="329.97009"
       id="text58769"><tspan
         sodipodi:role="line"
         id="tspan58771"
         x="229.32129"
         y="329.97009" /></text>
    <path
       style="fill:none;fill-opacity:0.75;fill-rule:evenodd;stroke:#000000;stroke-width:1;stroke-linecap:square;stroke-linejoin:miter;stroke-opacity:1;stroke-miterlimit:4;stroke-dasharray:none;stroke-dashoffset:1.9;marker-start:none;marker-mid:none;marker-end:none"
       d="M 354.50968,113.4715 L 344.0168,104.10284"
       id="path1430"
       sodipodi:nodetypes="cc" />
    <path
       style="fill:none;fill-opacity:0.75;fill-rule:evenodd;stroke:#000000;stroke-width:1;stroke-linecap:square;stroke-linejoin:miter;marker-start:none;marker-mid:none;marker-end:none;stroke-miterlimit:4;stroke-dasharray:none;stroke-dashoffset:1.9;stroke-opacity:1"
       d="M 235.20657,320.5597 L 226.21268,329.92833"
       id="path2489"
       sodipodi:nodetypes="cc" />
    <text
       xml:space="preserve"
       style="font-size:13.93762684px;font-style:normal;font-weight:normal;fill:#000000;fill-opacity:1;stroke:none;stroke-width:1px;stroke-linecap:butt;stroke-linejoin:miter;stroke-opacity:1;display:inline;font-family:Bitstream Vera Sans"
       x="350.9346"
       y="125.81149"
       id="text2493"><tspan
         sodipodi:role="line"
         id="tspan2495"
         x="350.9346"
         y="125.81149">VIII</tspan></text>
    <path
       style="fill:none;fill-opacity:0.75;fill-rule:evenodd;stroke:#000000;stroke-width:1;stroke-linecap:square;stroke-linejoin:miter;marker-start:none;marker-mid:none;marker-end:none;stroke-miterlimit:4;stroke-dasharray:none;stroke-dashoffset:1.9;stroke-opacity:1"
       d="M 131.06519,331.26389 L 116.39121,351.42468"
       id="path2513"
       sodipodi:nodetypes="cc" />
    <text
       xml:space="preserve"
       style="font-size:21.41844368px;font-style:normal;font-weight:normal;fill:#000000;fill-opacity:1;stroke:none;stroke-width:1px;stroke-linecap:butt;stroke-linejoin:miter;stroke-opacity:1;display:inline;font-family:Bitstream Vera Sans"
       x="200.04144"
       y="297.15878"
       id="text40688"><tspan
         sodipodi:role="line"
         id="tspan40690"
         x="200.04144"
         y="297.15878">I</tspan></text>
    <text
       xml:space="preserve"
       style="font-size:21.41844368px;font-style:normal;font-weight:normal;fill:#000000;fill-opacity:1;stroke:none;stroke-width:1px;stroke-linecap:butt;stroke-linejoin:miter;stroke-opacity:1;display:inline;font-family:Bitstream Vera Sans"
       x="152.13318"
       y="245.49513"
       id="text2924"><tspan
         sodipodi:role="line"
         id="tspan2926"
         x="152.13318"
         y="245.49513">II</tspan></text>
    <text
       xml:space="preserve"
       style="font-size:21.41844368px;font-style:normal;font-weight:normal;fill:#000000;fill-opacity:1;stroke:none;stroke-width:1px;stroke-linecap:butt;stroke-linejoin:miter;stroke-opacity:1;display:inline;font-family:Bitstream Vera Sans"
       x="99.116341"
       y="288.87256"
       id="text2928"><tspan
         sodipodi:role="line"
         id="tspan2930"
         x="99.116341"
         y="288.87256">III</tspan></text>
    <text
       xml:space="preserve"
       style="font-size:21.41844368px;font-style:normal;font-weight:normal;fill:#000000;fill-opacity:1;stroke:none;stroke-width:1px;stroke-linecap:butt;stroke-linejoin:miter;stroke-opacity:1;display:inline;font-family:Bitstream Vera Sans"
       x="181.85475"
       y="223.80643"
       id="text2932"><tspan
         sodipodi:role="line"
         id="tspan2934"
         x="181.85475"
         y="223.80643">IV</tspan></text>
    <text
       xml:space="preserve"
       style="font-size:21.41844368px;font-style:normal;font-weight:normal;fill:#000000;fill-opacity:1;stroke:none;stroke-width:1px;stroke-linecap:butt;stroke-linejoin:miter;stroke-opacity:1;display:inline;font-family:Bitstream Vera Sans"
       x="243.70776"
       y="273.61014"
       id="text2936"><tspan
         sodipodi:role="line"
         id="tspan2938"
         x="243.70776"
         y="273.61014">V</tspan></text>
    <text
       xml:space="preserve"
       style="font-size:21.41844368px;font-style:normal;font-weight:normal;fill:#000000;fill-opacity:1;stroke:none;stroke-width:1px;stroke-linecap:butt;stroke-linejoin:miter;stroke-opacity:1;display:inline;font-family:Bitstream Vera Sans"
       x="268.60962"
       y="220.59328"
       id="text2940"><tspan
         sodipodi:role="line"
         id="tspan2942"
         x="268.60962"
         y="220.59328">VI</tspan></text>
    <text
       xml:space="preserve"
       style="font-size:21.41844368px;font-style:normal;font-weight:normal;fill:#000000;fill-opacity:1;stroke:none;stroke-width:1px;stroke-linecap:butt;stroke-linejoin:miter;stroke-opacity:1;display:inline;font-family:Bitstream Vera Sans"
       x="289.49506"
       y="156.33044"
       id="text2944"><tspan
         sodipodi:role="line"
         id="tspan2946"
         x="289.49506"
         y="156.33044">VII</tspan></text>
    <text
       xml:space="preserve"
       style="font-size:21.41844368px;font-style:normal;font-weight:normal;fill:#000000;fill-opacity:1;stroke:none;stroke-width:1px;stroke-linecap:butt;stroke-linejoin:miter;stroke-opacity:1;display:inline;font-family:Bitstream Vera Sans"
       x="316.80673"
       y="79.215019"
       id="text2952"><tspan
         sodipodi:role="line"
         id="tspan2954"
         x="316.80673"
         y="79.215019">IX</tspan></text>
    <text
       xml:space="preserve"
       style="font-size:13.93762684px;font-style:normal;font-weight:normal;fill:#000000;fill-opacity:1;stroke:none;stroke-width:1px;stroke-linecap:butt;stroke-linejoin:miter;stroke-opacity:1;display:inline;font-family:Bitstream Vera Sans"
       x="213.56618"
       y="342.1442"
       id="text2956"><tspan
         sodipodi:role="line"
         id="tspan2958"
         x="213.56618"
         y="342.1442">X</tspan></text>
    <text
       xml:space="preserve"
       style="font-size:21.41844368px;font-style:normal;font-weight:normal;fill:#000000;fill-opacity:1;stroke:none;stroke-width:1px;stroke-linecap:butt;stroke-linejoin:miter;stroke-opacity:1;display:inline;font-family:Bitstream Vera Sans"
       x="255.75703"
       y="323.41385"
       id="text2960"><tspan
         sodipodi:role="line"
         id="tspan2962"
         x="255.75703"
         y="323.41385">XI</tspan></text>
    <text
       xml:space="preserve"
       style="font-size:13.93762684px;font-style:normal;font-weight:normal;fill:#000000;fill-opacity:1;stroke:none;stroke-width:1px;stroke-linecap:butt;stroke-linejoin:miter;stroke-opacity:1;display:inline;font-family:Bitstream Vera Sans"
       x="96.111038"
       y="361.86795"
       id="text2964"><tspan
         sodipodi:role="line"
         id="tspan2966"
         x="96.111038"
         y="361.86795">XII</tspan></text>
    <text
       xml:space="preserve"
       style="font-size:21.41844368px;font-style:normal;font-weight:normal;fill:#000000;fill-opacity:1;stroke:none;stroke-width:1px;stroke-linecap:butt;stroke-linejoin:miter;stroke-opacity:1;display:inline;font-family:Bitstream Vera Sans"
       x="144.10059"
       y="352.53217"
       id="text2968"><tspan
         sodipodi:role="line"
         id="tspan2970"
         x="144.10059"
         y="352.53217">XIII</tspan></text>
    <text
       xml:space="preserve"
       style="font-size:21.41844368px;font-style:normal;font-weight:normal;fill:#000000;fill-opacity:1;stroke:none;stroke-width:1px;stroke-linecap:butt;stroke-linejoin:miter;stroke-opacity:1;display:inline;font-family:Bitstream Vera Sans"
       x="170.40898"
       y="379.64383"
       id="text2972"><tspan
         sodipodi:role="line"
         id="tspan2974"
         x="170.40898"
         y="379.64383">XIV</tspan></text>
  </g>
</svg>
